<?xml version="1.0" encoding="UTF-8"?>
<svg width="88px" height="82px" viewBox="0 0 88 82" version="1.1" xmlns="http://www.w3.org/2000/svg" xmlns:xlink="http://www.w3.org/1999/xlink">
    <title>Direct Connections Icon</title>
    <g id="Home-Page" stroke="none" stroke-width="1" fill="none" fill-rule="evenodd">
        <g id="Getwork-Homepage" transform="translate(-978.000000, -1412.000000)">
            <g id="Direct-Connections-Icon" transform="translate(980.000000, 1414.000000)">
                <g id="Group" transform="translate(3.000000, 2.000000)" stroke="#AEE2DF">
                    <ellipse id="Oval" stroke-width="7.2" fill="#AEE2DF" cx="33.5151515" cy="31.0322581" rx="11.969697" ry="11.9354839"></ellipse>
                    <ellipse id="Oval-Copy" stroke-width="7.2" fill="#AEE2DF" cx="17.9545455" cy="7.16129032" rx="7.18181818" ry="7.16129032"></ellipse>
                    <ellipse id="Oval-Copy-2" stroke-width="7.2" fill="#AEE2DF" cx="7.18181818" cy="35.8064516" rx="7.18181818" ry="7.16129032"></ellipse>
                    <ellipse id="Oval-Copy-3" stroke-width="7.2" fill="#AEE2DF" cx="71.8181818" cy="41.7741935" rx="7.18181818" ry="7.16129032"></ellipse>
                    <ellipse id="Oval-Copy-4" stroke-width="7.2" fill="#AEE2DF" cx="71.8181818" cy="11.9354839" rx="7.18181818" ry="7.16129032"></ellipse>
                    <ellipse id="Oval-Copy-5" stroke-width="7.2" fill="#AEE2DF" cx="21.5454545" cy="66.8387097" rx="7.18181818" ry="7.16129032"></ellipse>
                    <line x1="7.18181818" y1="35.8064516" x2="34.1136364" y2="31.0322581" id="Path-3" stroke-width="6"></line>
                    <line x1="71.8181818" y1="11.9354839" x2="33.5151515" y2="31.0322581" id="Path-5" stroke-width="6"></line>
                    <line x1="71.8181818" y1="41.7741935" x2="34.1136364" y2="31.0322581" id="Path-6" stroke-width="6"></line>
                    <line x1="21.5454545" y1="66.8387097" x2="34.1136364" y2="31.0322581" id="Path-7" stroke-width="6"></line>
                    <line x1="17.9545455" y1="7.16129032" x2="33.5151515" y2="31.0322581" id="Path-4" stroke-width="6"></line>
                </g>
                <ellipse id="Oval" stroke="#000000" stroke-width="3" cx="33.5151515" cy="31.0322581" rx="11.969697" ry="11.9354839"></ellipse>
                <ellipse id="Oval-Copy" stroke="#000000" stroke-width="3" cx="17.9545455" cy="7.16129032" rx="7.18181818" ry="7.16129032"></ellipse>
                <ellipse id="Oval-Copy-2" stroke="#000000" stroke-width="3" cx="7.18181818" cy="35.8064516" rx="7.18181818" ry="7.16129032"></ellipse>
                <ellipse id="Oval-Copy-3" stroke="#000000" stroke-width="3" cx="71.8181818" cy="41.7741935" rx="7.18181818" ry="7.16129032"></ellipse>
                <ellipse id="Oval-Copy-4" stroke="#000000" stroke-width="3" cx="71.8181818" cy="11.9354839" rx="7.18181818" ry="7.16129032"></ellipse>
                <ellipse id="Oval-Copy-5" stroke="#000000" stroke-width="3" cx="21.5454545" cy="66.8387097" rx="7.18181818" ry="7.16129032"></ellipse>
                <path d="M13.7727273,34.6129032 C13.7727273,34.6129032 16.6131856,34.0860215 22.2941024,33.0322581" id="Path-3" stroke="#000000" stroke-width="3"></path>
                <line x1="66.5762312" y1="15.0101725" x2="43.3759127" y2="26.8602641" id="Path-5" stroke="#000000" stroke-width="3"></line>
                <line x1="66.5762312" y1="39.7789329" x2="44.1414874" y2="33.8225806" id="Path-6" stroke="#000000" stroke-width="3"></line>
                <line x1="23.9431818" y1="60.8524958" x2="30.3704668" y2="42.460775" id="Path-7" stroke="#000000" stroke-width="3"></line>
                <line x1="20.9545455" y1="11.9354839" x2="28.1363636" y2="21.9982375" id="Path-4" stroke="#000000" stroke-width="3"></line>
            </g>
        </g>
    </g>
</svg>