<?xml version="1.0" encoding="UTF-8"?>
<svg width="87px" height="92px" viewBox="0 0 87 92" version="1.1" xmlns="http://www.w3.org/2000/svg" xmlns:xlink="http://www.w3.org/1999/xlink">
    <title>Easier to Hire</title>
    <g id="Employer-Page" stroke="none" stroke-width="1" fill="none" fill-rule="evenodd" stroke-linecap="round">
        <g id="Employers-Page" transform="translate(-978.000000, -1632.000000)">
            <g id="Direct-Connections" transform="translate(970.000000, 1634.000000)">
                <g id="Easier-to-Hire" transform="translate(10.000000, 0.000000)">
                    <g transform="translate(2.000000, 2.000000)" stroke="#FF7951" stroke-width="7">
                        <path d="M61.4671749,46.4992243 C61.4671749,58.4697002 51.8154287,68.172863 39.909099,68.172863 C28.0027693,68.172863 18.348548,58.4697002 18.348548,46.4992243 C18.348548,34.5289557 28.0027693,24.8253782 39.909099,24.8253782 C51.8154287,24.8253782 61.4671749,34.5289557 61.4671749,46.4992243 Z" id="Stroke-17"></path>
                        <line x1="55.6529234" y1="61.3728936" x2="61.3820943" y2="67.1353195" id="Stroke-19"></line>
                        <polygon id="Stroke-21" points="64.5839701 63.9163321 58.1803423 70.3543483 70.7609227 83 77.1645505 76.5646794"></polygon>
                    </g>
                    <path d="M16.1375876,34.38405 C16.1375876,37.5927937 13.550932,40.19334 10.3593278,40.19334 C7.16813604,40.19334 4.58003665,37.5927937 4.58003665,34.38405 C4.58003665,31.172818 7.16813604,28.5749674 10.3593278,28.5749674 C13.550932,28.5749674 16.1375876,31.172818 16.1375876,34.38405 Z" id="Stroke-1" stroke="#000000" stroke-width="3"></path>
                    <path d="M18.3858597,47.6792058 C16.8092394,45.9869119 14.56765,44.9285283 12.0787597,44.9285283 L8.63882331,44.9285283 C3.86585487,44.9285283 0,48.8176317 0,53.6178907 L0,56.2416617 L20.7177893,56.2337819" id="Stroke-3" stroke="#000000" stroke-width="3"></path>
                    <path d="M75.3088659,34.38405 C75.3088659,37.5927937 72.7222103,40.19334 69.5306061,40.19334 C66.3394143,40.19334 63.7500774,37.5927937 63.7500774,34.38405 C63.7500774,31.172818 66.3394143,28.5749674 69.5306061,28.5749674 C72.7222103,28.5749674 75.3088659,31.172818 75.3088659,34.38405 Z" id="Stroke-5" stroke="#000000" stroke-width="3"></path>
                    <path d="M59.1713608,56.2416617 L79.8875,56.2337819 L79.8875,53.6178907 C79.8875,48.8176317 76.0218514,44.9285283 71.2501205,44.9285283 L67.8116279,44.9285283 C65.2841677,44.9285283 63.0114337,46.017809 61.4335758,47.7567598" id="Stroke-7" stroke="#000000" stroke-width="3"></path>
                    <path d="M45.6845538,5.80908262 C45.6845538,9.01782627 43.0978982,11.6183726 39.9065002,11.6183726 C36.7151022,11.6183726 34.1284466,9.01782627 34.1284466,5.80908262 C34.1284466,2.59785061 36.7151022,0 39.9065002,0 C43.0978982,0 45.6845538,2.59785061 45.6845538,5.80908262 Z" id="Stroke-9" stroke="#000000" stroke-width="3"></path>
                    <path d="M50.2658898,27.4855623 L50.2658898,25.0428196 C50.2658898,20.242768 46.3975599,16.3536645 41.6256227,16.3536645 L38.1846551,16.3536645 C33.4129242,16.3536645 29.5497506,20.242768 29.5497506,25.0428196 L29.5497506,27.4569461" id="Stroke-11" stroke="#000000" stroke-width="3"></path>
                    <path d="M46.7063663,38.6122137 C46.7063663,42.3876819 43.6642976,45.446087 39.9077583,45.446087 C36.1526629,45.446087 33.1091504,42.3876819 33.1091504,38.6122137 C33.1091504,34.8342571 36.1526629,31.7783404 39.9077583,31.7783404 C43.6642976,31.7783404 46.7063663,34.8342571 46.7063663,38.6122137 Z" id="Stroke-13" stroke="#000000" stroke-width="3"></path>
                    <path d="M52.0960193,64.3796652 L52.0960193,61.2408031 C52.0960193,55.5920125 47.545601,51.0173651 41.9294583,51.0173651 L37.883542,51.0173651 C32.2688431,51.0173651 27.7208999,55.5920125 27.7208999,61.2408031 L27.7208999,64.3796652" id="Stroke-15" stroke="#000000" stroke-width="3"></path>
                    <path d="M61.4671749,46.4992243 C61.4671749,58.4697002 51.8154287,68.172863 39.909099,68.172863 C28.0027693,68.172863 18.348548,58.4697002 18.348548,46.4992243 C18.348548,34.5289557 28.0027693,24.8253782 39.909099,24.8253782 C51.8154287,24.8253782 61.4671749,34.5289557 61.4671749,46.4992243 Z" id="Stroke-17" stroke="#000000" stroke-width="3"></path>
                    <line x1="55.6529234" y1="61.3728936" x2="61.3820943" y2="67.1353195" id="Stroke-19" stroke="#000000" stroke-width="3"></line>
                    <polygon id="Stroke-21" stroke="#000000" stroke-width="3" points="64.5839701 63.9163321 58.1803423 70.3543483 70.7609227 83 77.1645505 76.5646794"></polygon>
                </g>
            </g>
        </g>
    </g>
</svg>