<?xml version="1.0" encoding="UTF-8"?>
<svg width="656px" height="426px" viewBox="0 0 656 426" version="1.1" xmlns="http://www.w3.org/2000/svg" xmlns:xlink="http://www.w3.org/1999/xlink">
    <title>Homepage Graphic 1</title>
    <g id="Home-Page" stroke="none" stroke-width="1" fill="none" fill-rule="evenodd">
        <g id="Getwork-Homepage" transform="translate(-140.000000, -641.000000)">
            <g id="Homepage-Graphic-1" transform="translate(140.000000, 641.000000)">
                <g id="Group-17" transform="translate(284.729949, 23.824358)">
                    <path d="M85.058614,388.385671 C85.5822428,388.264939 86.1040044,388.135909 86.6220318,387.99464 C86.57971,388.300204 86.5367658,388.605768 86.4944439,388.911124 C86.018116,388.727744 85.5291331,388.564487 85.0698169,388.389612 C85.0660826,388.388367 85.0623483,388.387123 85.058614,388.385671 M247.715467,367.630567 C247.967323,366.586506 248.219179,365.542652 248.470828,364.49859 C249.05794,362.063622 249.645051,359.628655 250.232163,357.193894 C253.265641,344.612881 256.263437,332.027097 259.166423,319.415382 C260.633372,313.041691 262.100528,306.667793 263.567685,300.294309 C265.034841,293.920618 266.586433,287.568708 268.083464,281.204352 C268.599002,279.012922 268.297148,276.800956 267.253002,274.953259 C260.802037,274.72196 254.349619,274.512443 247.896372,274.332589 C247.484979,274.43071 247.072756,274.525927 246.659081,274.615957 C246.628999,274.615749 246.598918,274.615957 246.568836,274.615749 C243.877459,274.601021 241.186289,274.586707 238.494705,274.572186 C233.042244,274.542937 227.59082,274.462449 222.139604,274.322217 C217.771329,274.209783 213.403261,274.134896 209.034778,274.08594 C207.355182,274.120168 205.675172,274.144646 203.994955,274.147343 C196.767674,274.158545 189.541639,274.234054 182.314566,274.224512 C178.253539,274.218911 174.192719,274.228038 170.132106,274.251687 C168.066636,274.263718 166.002825,274.261644 163.937562,274.245048 C161.381863,274.224719 158.880519,274.289234 156.359467,273.767929 C155.735427,273.6389 155.135246,273.379388 154.580291,273.024038 C150.693944,273.033165 146.807806,273.073824 142.921875,273.148296 C134.667046,273.306783 126.415121,273.651346 118.172739,274.131992 C116.341698,274.238618 114.469165,274.319935 112.648705,274.621765 C111.811812,274.63027 110.974919,274.638983 110.138025,274.647488 C108.361961,274.665743 106.662242,274.978153 105.09509,275.881153 C104.160276,276.419883 103.384791,277.127471 102.617604,277.864517 C101.932987,278.522112 101.410603,279.326161 101.052527,280.203853 C101.510598,281.795357 101.291728,283.567129 100.716857,285.087895 C100.810214,285.455277 100.931785,285.814569 101.081364,286.161414 C101.024105,286.485232 100.972447,286.810296 100.925976,287.135982 C100.634288,289.182408 100.343844,291.22925 100.052778,293.276299 C99.0223244,300.523534 97.9918711,307.770975 96.9614178,315.018417 C95.8239152,325.896322 94.3681692,336.742073 92.6410656,347.540319 C92.054369,351.208329 91.4290849,354.870531 90.7722669,358.526717 C90.5969633,359.757477 90.4218671,360.988445 90.2469785,362.219205 C89.5849739,366.874644 88.9260813,371.530084 88.2707155,376.186146 C88.188354,376.17764 88.1059924,376.167061 88.0236308,376.16146 C86.0531768,376.032223 84.0182027,376.273272 82.0516904,376.443997 C80.1843439,376.605803 78.3184497,376.77321 76.4517256,376.941861 C72.5769972,377.292025 68.6840123,377.543446 64.7968363,377.699029 C60.903644,377.855026 27.5799842,380.349115 27.1598779,381.647709 C26.3410337,384.177271 27.6974065,387.38455 30.0047754,388.638544 C32.3233471,389.898346 34.7917049,390.487692 37.3166992,391.166031 C39.4209649,391.731521 41.5260604,392.295144 43.6363424,392.836571 C47.7251694,393.885611 51.8382692,394.848977 55.9497093,395.804668 C64.3620004,397.75982 72.8736648,399.645271 81.4365718,400.821059 C82.4180646,400.948014 83.3640817,401.04406 84.3640383,401.016677 C85.5312077,400.984109 86.672652,400.756129 87.6937696,400.171139 C87.709744,400.162426 87.7234363,400.152884 87.7387884,400.143757 C88.0348336,400.047503 88.3194686,399.929053 88.5897888,399.786747 C89.6397434,400.741815 90.9459108,401.425755 92.2825749,401.858274 C94.3799944,402.537028 97.1371363,402.073185 99.0080096,400.978508 C99.2513601,400.836409 99.5028015,400.664646 99.7554876,400.473591 C101.007508,400.322987 102.257039,400.134214 103.496404,399.988797 C106.024303,399.692153 108.552617,399.397791 111.081138,399.105711 C116.277178,398.50537 121.470314,397.877647 126.66511,397.265483 C145.12904,395.089196 163.603551,392.986345 182.081174,390.931206 C191.323304,389.903117 200.568754,388.905523 209.817109,387.938216 C214.406952,387.457985 218.997417,386.985222 223.588711,386.519927 C226.447924,386.230129 229.292406,385.874364 232.139586,385.483956 C233.480814,385.300161 234.829303,385.142712 236.169702,384.942114 C236.482759,385.037953 236.802247,385.110351 237.125677,385.153914 C238.535367,385.343309 239.82639,385.079649 241.078617,384.41832 C242.577308,383.62651 243.325408,382.200545 243.927664,380.713593 C244.102553,380.281281 244.277649,379.84897 244.452953,379.416865 C245.516392,377.452171 245.936913,375.007039 246.45743,372.849007 C246.876707,371.109597 247.29619,369.369978 247.715467,367.630567" id="Fill-1" fill="#EFEFEF"></path>
                    <path d="M171.953397,197.811246 C172.016465,197.908122 172.079532,198.004583 172.143637,198.100421 C172.053185,198.111001 171.962732,198.121373 171.872072,198.13216 C171.899042,198.02512 171.927049,197.918494 171.953397,197.811246" id="Fill-3" fill="#F2B991"></path>
                    <path d="M113.537442,134.23002 C113.571881,133.980258 113.604244,133.730497 113.637645,133.480942 C113.638683,133.473267 113.640135,133.465592 113.641172,133.457916 C113.606526,133.715353 113.572088,133.972583 113.537442,134.23002" id="Fill-5" fill="#F2B991"></path>
                    <path d="M113.641172,133.457979 C113.700921,133.013013 113.760669,132.568047 113.820418,132.123082 C113.764818,132.568462 113.704655,133.013428 113.641172,133.457979" id="Fill-7" fill="#F2B991"></path>
                    <path d="M172.143637,198.100338 C172.053185,198.111126 171.962732,198.121498 171.872072,198.132077 C171.899042,198.025244 171.927049,197.918411 171.953397,197.811163 C172.016465,197.908039 172.079532,198.0045 172.143637,198.100338 M180.334776,213.011353 C182.015201,212.914892 183.696249,212.832952 185.378126,212.766155 C189.613627,212.598334 193.455162,209.225308 193.354129,204.790588 C193.253096,200.351512 191.312516,196.689725 188.699144,193.256126 C187.009798,191.036691 185.558616,188.720381 184.39041,186.200984 C182.90147,182.340674 181.987609,178.29574 181.372283,174.207242 C180.770442,169.273622 180.52149,164.309714 180.069643,159.361365 C179.639163,154.644107 179.086698,149.913366 177.998985,145.296718 C176.951106,140.849967 175.371506,136.529548 173.372008,132.421966 C170.906969,127.358071 167.391976,122.854272 163.025153,119.440795 C162.917066,119.399514 162.809187,119.357818 162.700686,119.317781 C162.288463,119.165933 161.872713,119.023834 161.454474,118.889619 C161.073578,118.767434 160.690399,118.651681 160.305769,118.541529 C160.116565,118.487386 159.513479,118.357112 159.364938,118.304836 C159.249798,118.293012 159.15001,118.282847 159.09524,118.278076 C158.654595,118.239699 158.213121,118.211694 157.772476,118.173732 C157.414815,118.143031 157.057777,118.105898 156.700946,118.066069 C156.028153,118.079968 155.531909,118.000725 155.060768,117.857381 C154.207278,117.736027 153.355655,117.598492 152.505899,117.454112 C148.417902,117.308902 144.322436,115.889575 140.703506,114.045198 C137.033748,112.174891 133.885129,109.668355 131.536683,106.306531 C130.943763,106.19949 130.336943,106.163395 129.731575,106.190155 C129.100897,104.05847 128.048453,102.069919 125.950203,100.977316 C124.117918,100.023285 121.472596,99.6498874 119.674542,100.977316 C118.536624,101.817668 117.724834,102.480242 117.003495,103.723241 C116.497708,104.594503 116.24523,105.421786 116.084863,106.301967 C115.383234,111.414404 115.485097,116.578494 115.121212,121.72267 C114.806703,126.16714 114.506093,130.594184 113.946989,135.014383 C113.777287,136.214442 113.597212,137.418234 113.398465,138.620368 C113.078147,139.100391 112.760941,139.581867 112.454315,140.07081 C112.229636,140.429272 112.009314,140.791053 111.799779,141.161131 C110.408553,143.619955 108.92563,146.027333 107.359515,148.378494 C102.262225,156.03128 96.5253371,163.206531 91.2668513,170.743564 C90.996946,171.130445 90.7289078,171.519401 90.4616994,171.908772 C89.7028112,170.039087 88.9130114,168.188279 88.1140833,166.357386 C84.7818625,158.722647 80.7851478,151.39534 76.5419706,144.233365 C72.3960921,137.23527 68.1527075,130.230329 63.5765573,123.503569 C62.2508886,121.554848 60.867546,119.617122 59.3887719,117.759053 C59.2093191,114.359267 59.0298663,110.959689 58.8504135,107.559903 C58.8242735,107.063906 58.7630729,106.577659 58.6728278,106.101992 C58.6263568,105.856379 58.5738695,105.613049 58.5101793,105.374282 C57.5929991,105.628607 56.6588072,105.80846 55.7123752,105.94392 C53.6649535,106.237453 51.5677415,106.535756 49.4894083,106.430582 C47.4110751,106.325408 45.2978887,105.976074 43.2622922,105.544385 C41.2887263,105.125972 39.4680583,104.35864 37.6343203,103.514139 C37.5953178,103.484059 37.5563154,103.453773 37.5173129,103.423693 C34.6958584,104.278567 31.4854166,104.953587 29.3535588,102.895958 C29.2911133,102.835592 29.2324022,102.773359 29.1772179,102.709467 C25.1545706,103.055689 21.0329649,104.215504 17.7040635,106.479331 C15.0491993,108.284917 13.1484518,110.211441 11.2570399,112.77046 C9.80419833,114.736192 8.86233042,116.952099 7.98747206,119.229203 C6.44977935,123.232026 6.01722548,127.690187 5.70147153,131.930118 C5.02639704,140.997459 4.75379474,150.107118 4.31750659,159.188565 C3.86731863,168.556698 3.41713067,177.924831 2.9669427,187.292757 C2.06656678,206.032758 1.00437214,224.76612 0.0102243408,243.501349 C-0.240387207,248.222756 4.15796994,251.995939 8.59823398,252.091778 C10.0705768,252.123517 11.5474838,251.751364 12.8609124,250.875124 C14.7058532,249.644571 16.6385495,248.57126 18.6504955,247.64876 C21.3854393,246.589348 24.2114579,245.818489 27.1053159,245.3422 C29.6736694,245.078332 32.2658807,245.039748 34.8367237,245.27976 C35.9321119,245.477038 37.0084138,245.74381 38.0612728,246.103101 C38.4963161,246.326518 38.9195343,246.569226 39.3311347,246.833716 C39.6572617,247.132849 39.9701112,247.445051 40.2682311,247.772604 C40.669251,248.384561 41.0279492,249.02079 41.3515866,249.678177 C43.0596039,254.360169 43.4442345,259.418878 44.509956,264.264543 C45.1358625,267.109626 46.0895556,269.762617 47.3013288,272.417682 C47.7925939,273.493897 48.3732741,274.509124 49.0076864,275.4895 C49.8535004,276.797014 50.7982728,278.040843 51.7816326,279.26787 C54.7893861,283.020931 58.8207467,286.167844 63.1043786,288.340189 C67.6948436,290.668116 72.5027265,292.093458 77.5921326,292.578045 C78.0674232,292.623268 78.5443735,292.663512 79.0248506,292.692139 C83.4752802,292.958704 87.8014413,292.203196 91.9373616,290.74404 C93.0823328,290.339941 94.2134041,289.885226 95.3276712,289.379687 C96.8850726,288.672513 98.0758924,286.936006 98.7156987,285.420012 C98.7617548,285.310897 98.8057362,285.199914 98.8480581,285.087895 C99.4229294,283.567129 99.6420071,281.795357 99.1839356,280.203853 C99.1671314,280.145354 99.1517793,280.086648 99.133108,280.028564 C99.0275109,279.700596 98.9356061,279.372214 98.8565639,279.040927 C98.8461909,278.735571 98.8476431,278.430629 98.8596758,278.12548 C98.9640281,277.670765 99.0901638,277.222688 99.2376677,276.779796 C99.5596455,276.149377 99.9195884,275.541568 100.316044,274.954089 C100.920582,274.26517 101.571592,273.622304 102.264093,273.020926 C103.031694,272.49485 103.832074,272.02354 104.665026,271.607824 C105.854186,271.192107 107.077162,270.88924 108.31798,270.668106 C110.886748,270.436807 113.460081,270.528082 116.023662,270.811034 C119.199251,271.304749 122.327746,272.021673 125.444831,272.806015 C129.178072,273.745525 132.868576,272.134522 134.921806,268.949854 C136.956573,265.794021 136.094162,261.379216 133.609622,258.781405 C133.072924,258.219857 132.558423,257.640883 132.062179,257.045521 C130.840033,255.333285 129.79236,253.512971 128.906922,251.604909 C127.842652,248.792809 127.172557,245.876159 126.705772,242.907854 C126.264712,238.864372 126.321142,234.788529 126.775894,230.747744 C127.695563,224.904692 129.477229,219.279663 131.703688,213.806898 C134.183042,208.078562 137.058643,202.536096 139.944618,197.004416 C142.952579,191.238534 145.974024,185.418716 148.560012,179.428587 C150.038164,186.974124 151.504075,194.521944 152.997994,202.062295 C150.80618,203.480999 149.589635,206.15909 149.942732,208.78698 C150.149155,210.322475 150.791866,211.60074 151.834974,212.737113 C152.924138,213.923481 155.081721,214.859049 156.700116,214.752009 C156.788701,214.7462 156.877494,214.740184 156.966079,214.734376 C159.285273,214.579831 161.613803,214.413047 163.937354,214.365749 C166.277502,214.318452 168.656029,213.920784 170.998459,213.705665 C174.106416,213.420016 177.219144,213.190169 180.334776,213.011353" id="Fill-9" fill="#FF7951"></path>
                    <path d="M116.08227,106.317048 C116.008622,106.865113 115.934973,107.413178 115.861325,107.961036 C115.925223,107.38061 115.987668,106.839598 116.08227,106.317048" id="Fill-11" fill="#FF2C30"></path>
                    <path d="M116.113783,106.083073 C116.10341,106.156093 116.094904,106.229113 116.084946,106.302133 C116.083909,106.307112 116.083286,106.312091 116.082249,106.317069 C116.09283,106.239071 116.103203,106.161072 116.113783,106.083073" id="Fill-13" fill="#FF2C30"></path>
                    <path d="M76.5253116,0 C76.1805132,0.265734693 75.8373746,0.532506601 75.4946508,0.800108282 C75.2606361,0.979961505 75.025584,1.15815518 74.7919842,1.33904562 C75.36976,0.892627933 75.9475358,0.446417688 76.5253116,0" id="Fill-15" fill="#6D6453"></path>
                </g>
                <g id="Group-76">
                    <path d="M129.163327,298.571709 C123.234123,305.368585 108.129798,310.942168 95.4523391,299.696259 C91.4172442,296.125125 88.576081,290.51192 86.5732632,284.681938 C93.794942,278.989905 106.334648,275.578087 106.334648,275.578087 C97.909494,274.542323 89.4835106,276.346041 84.5409861,277.677827 C82.4692917,269.085531 82.0054114,261.657406 82.0054114,261.657406 C82.0054114,261.657406 108.2383,255.185802 124.871811,268.335831 C135.724038,276.91817 133.908764,293.116369 129.163327,298.571709" id="Fill-18" fill="#D5DD6F"></path>
                    <path d="M163.94072,223.143425 C163.94072,223.143425 134.648006,237.12136 134.635968,258.096768 C134.627467,272.686661 144.295928,281.529963 153.36649,282.440224 C162.437051,283.350484 176.509263,276.99733 179.093176,262.133405 C182.041181,245.174304 163.94072,223.143425 163.94072,223.143425" id="Fill-20" fill="#D5DD6F"></path>
                    <path d="M199.864911,292.989974 C199.864911,292.989974 182.169619,284.578569 166.688547,292.975038 C151.400413,301.266541 154.956898,315.745244 158.77333,320.486773 C163.378525,326.20847 174.928024,330.82574 184.881327,323.201789 C196.103663,314.605344 199.864911,292.989974 199.864911,292.989974" id="Fill-22" fill="#D5DD6F"></path>
                    <path d="M423.067976,45.580769 C432.479602,56.239821 428.111534,74.4892185 425.796904,81.8405893 C424.793835,85.0258791 423.543889,88.3696554 422.220503,91.909673 C422.085861,92.2706241 421.949975,92.6336497 421.814296,92.997505 C421.886077,92.8991769 421.957236,92.8010563 422.028602,92.7025208 C429.635949,82.1635783 432.327534,69.4361104 429.412722,57.7829907 C427.35472,49.5543428 422.628784,42.4502442 415.815593,37.1662519 C418.807373,40.6556534 422.034204,44.4099597 423.067976,45.580769 L423.067976,45.580769 Z M419.609205,90.9334455 C420.919314,87.4284858 422.156605,84.1187301 423.137475,81.0033487 C424.832838,75.6199912 429.686569,57.2886537 420.978025,47.4259759 C419.278514,45.502148 411.963063,36.9571492 409.047007,33.548858 C406.047344,37.4840548 401.516835,39.6980957 396.751689,42.0272676 C391.173508,44.7536931 385.405293,47.5732605 381.149876,53.4578008 C371.14616,67.2903184 367.618927,81.4651172 363.884234,96.472178 C363.45085,98.2132484 363.012902,99.9746483 362.560225,101.751399 C365.043727,105.90856 368.405407,109.83214 371.615019,113.326313 C377.372238,119.593793 382.21373,122.586161 386.850873,122.743817 C390.59013,122.863512 394.262585,121.163515 398.089598,117.526 C399.46153,116.222012 400.871635,114.902881 402.299374,113.567569 C407.15933,109.020622 412.13318,104.36788 416.50685,99.4927579 C417.492284,96.596229 418.566097,93.7237635 419.609205,90.9334455 L419.609205,90.9334455 Z M321.856801,123.371748 C324.591953,124.098836 327.299719,125.193929 330.144617,126.344201 C330.958067,126.673413 331.786869,127.008434 332.63538,127.34304 C331.374646,125.145387 329.638829,123.554298 327.225656,123.032786 C326.748083,122.929479 326.223002,122.883012 325.659334,122.883012 C324.518512,122.883012 323.222095,123.073445 321.856801,123.371748 L321.856801,123.371748 Z M357.739894,98.366134 C351.918777,108.030289 348.002764,117.138703 347.222092,127.627237 C351.311749,125.210317 354.411408,120.130241 356.927481,111.758457 C357.896526,108.534583 358.762671,105.325437 359.577366,102.16027 C358.882583,100.917685 358.262485,99.6516593 357.739894,98.366134 L357.739894,98.366134 Z M356.91773,94.3832253 C357.211494,93.9160633 357.753171,93.6644347 358.298791,93.745545 C358.845033,93.8247883 359.292939,94.2189303 359.441273,94.7503997 C359.748313,95.8519229 360.147881,96.9457707 360.622964,98.0284166 C360.809885,97.2816212 360.994525,96.5383523 361.178749,95.7990249 C364.980037,80.5229103 368.570753,66.0937862 378.890637,51.8241858 C383.554751,45.3747779 389.915263,42.2658272 395.527261,39.5228062 C400.722264,36.9834945 405.209207,34.7899905 407.704327,30.5591871 C407.94664,30.1341361 408.402429,29.8576144 408.911536,29.8561623 L408.986014,29.8561623 C432.896181,29.8561623 443.994248,61.3686458 446.52111,78.0474911 C447.016939,81.3213591 447.415884,84.4178632 447.801137,87.4125127 C448.245101,90.8612553 448.669564,94.1566974 449.200869,97.408369 C451.378368,91.9710762 453.310442,86.8385174 452.849051,82.3087885 C451.790798,71.921487 448.328915,61.8123667 444.980927,52.0361928 C444.211044,49.7883386 443.440953,47.538825 442.696172,45.2816359 L442.563812,44.8800259 C439.119356,34.4360924 435.557269,23.6368088 427.361151,15.8686846 C410.973895,0.335547964 391.723484,-1.46982989 370.143506,10.50213 C369.33379,10.9512444 368.533202,11.3922686 367.742573,11.8283141 C357.844454,17.2846917 349.295862,21.9969706 342.220442,31.7042734 C336.005773,40.2312246 331.028188,53.9641695 330.38527,64.3579018 C330.121174,68.6295714 330.364939,72.947086 330.600406,77.1229169 C331.04354,84.9819011 331.501819,93.1086945 328.609621,101.27428 C325.293997,110.63536 319.23762,116.834177 312.455342,122.731163 C313.201367,122.61458 313.932871,122.542183 314.655246,122.508992 C319.127459,121.108128 324.19197,119.525752 327.814635,120.307812 C332.141003,121.242966 334.722841,124.47825 336.304931,128.598486 C339.340069,129.409174 342.015886,129.48572 344.393792,128.83103 C345.03505,116.214129 349.915129,105.531843 356.91773,94.3832253 L356.91773,94.3832253 Z M447.692428,118.568401 C449.062078,123.099168 452.242646,126.362663 455.60972,129.817837 C456.368193,130.595749 457.132268,131.379884 457.884103,132.186215 C456.054721,127.571227 454.147335,123.109125 452.410273,119.045728 C450.671967,114.979842 449.406877,111.164755 448.434097,107.438661 C447.239958,111.369709 446.668199,115.17961 447.692428,118.568401 L447.692428,118.568401 Z M461.83082,142.932601 C460.044797,138.362836 456.775022,135.008065 453.613126,131.763446 C450.160371,128.220732 446.590194,124.557286 445.023457,119.37494 C443.394482,113.986812 445.049389,108.131314 447.256347,102.320416 C446.296845,97.5612546 445.687121,92.8265718 445.035904,87.7686926 C444.652311,84.7891864 444.255855,81.7082406 443.764382,78.4648667 C441.302456,62.2156362 432.024435,39.0031611 415.864554,33.7353494 C424.063991,39.4993652 429.739679,47.5993984 432.117792,57.1065186 C435.232387,69.5585019 432.378776,83.1277741 424.289293,94.3340613 C422.661977,96.5885536 420.869731,98.7808129 418.966909,100.924531 C415.726801,110.576031 413.603449,120.358221 417.254743,127.693619 C419.726627,132.659393 424.593636,136.164975 432.134803,138.410547 C435.199401,139.323297 438.488885,139.77822 441.971307,140.260111 C450.185474,141.396484 458.656683,142.568538 463.976785,150.053088 C463.353368,147.712921 462.62871,145.332096 461.835176,142.944218 C461.833724,142.940069 461.832272,142.936335 461.83082,142.932601 L461.83082,142.932601 Z M432.364461,160.070933 C434.28388,164.146776 435.721992,168.31908 436.674648,172.584527 C436.97505,170.986385 437.409471,169.310451 437.864431,167.555067 C438.829534,163.832085 439.827624,159.98194 439.483033,156.869463 C439.214165,154.44134 438.600913,152.955217 437.37607,151.90431 C435.10231,154.109431 433.464829,156.921946 432.364461,160.070933 L432.364461,160.070933 Z M314.550064,155.711515 C314.158172,155.85714 313.901752,156.121215 313.719602,156.568255 C312.03648,160.700108 318.070658,173.730028 321.311389,180.594945 C322.285206,176.952035 323.121269,173.49458 322.961318,170.222786 C322.840161,167.745708 319.983439,158.340235 316.490851,156.036371 C315.971787,155.69409 315.54276,155.588501 315.195472,155.588501 C314.934695,155.588501 314.720804,155.648037 314.550064,155.711515 L314.550064,155.711515 Z M435.028039,179.943573 C434.516028,174.629916 433.242224,169.449646 431.212852,164.409814 C429.903157,171.27722 430.608728,179.03352 432.494124,185.437498 C433.075427,187.410697 433.973313,189.325812 434.989659,191.196327 C434.987792,191.165833 434.986547,191.134509 434.98468,191.103808 C434.839043,188.209146 434.967046,185.496204 435.233839,182.831389 C435.18965,181.877151 435.121603,180.915652 435.028039,179.943573 L435.028039,179.943573 Z M439.76912,213.698102 C440.601656,210.041709 439.975543,206.791697 438.681408,203.666151 C438.983262,206.912844 439.34362,210.234839 439.76912,213.698102 L439.76912,213.698102 Z M467.708781,208.502896 C468.792966,190.632704 469.838979,172.271495 465.400167,154.236179 C464.976534,154.234105 464.425313,154.244062 464.208932,154.26128 C463.660408,154.30671 463.136987,154.023757 462.872891,153.54083 C458.392172,145.346202 450.230492,144.216882 441.589166,143.021802 C438.156742,142.546757 434.607103,142.055531 431.338987,141.082623 C423.017149,138.604507 417.593525,134.631348 414.758585,128.935788 C411.39732,122.182891 412.294169,113.944286 414.611496,105.579348 C411.250024,109.011702 407.697895,112.334527 404.203856,115.603209 C402.781926,116.933542 401.377422,118.247902 400.010469,119.546911 C395.673935,123.667977 391.21417,125.673537 386.756272,125.529987 C381.32186,125.345362 375.857989,122.066723 369.561373,115.212386 C366.825392,112.233917 363.980495,108.945943 361.603834,105.433308 C360.978758,107.78924 360.316961,110.167991 359.597905,112.560847 C356.67438,122.287235 352.866246,128.013496 347.614192,130.580605 C347.438473,130.666279 347.26151,130.748427 347.082887,130.826218 C347.019197,135.733493 347.630374,140.966247 349.032387,146.706407 C350.93272,154.489052 356.502188,161.8983 361.887847,169.064009 C367.490094,176.517234 373.254574,184.186616 375.300544,192.641377 C377.408751,189.003446 380.517745,185.089201 383.168668,181.751233 L383.953074,180.762974 C389.807799,173.370114 394.831233,165.322564 397.390873,159.235974 C400.580154,151.654134 399.391616,146.282393 398.01512,140.062417 C397.056863,135.732041 395.970603,130.824144 396.320795,124.650428 C396.34901,124.149867 396.644432,123.702827 397.094205,123.480033 C397.542941,123.258069 398.07798,123.293749 398.493522,123.575042 C413.419224,133.672338 424.174567,144.766191 430.673041,156.733795 C432.034808,153.779182 433.905266,151.155026 436.363873,149.057568 C436.81987,148.668197 437.474406,148.614884 437.988284,148.924182 C441.217397,150.869376 441.956784,153.877095 442.254074,156.562862 C442.655094,160.185234 441.591448,164.287215 440.563276,168.254773 C440.022428,170.341236 439.511662,172.311532 439.247151,174.088697 L438.995709,175.760482 C438.629543,178.178647 438.273127,180.532919 438.029154,182.9125 C438.156742,185.854873 438.067741,188.71261 437.796799,191.500024 C437.884139,193.174298 437.985172,194.846705 438.101765,196.526994 C441.168229,201.722201 443.96064,207.165925 442.577504,213.904301 C449.471397,209.328312 461.717754,208.54957 464.471369,208.430498 C464.782144,208.417014 465.112835,208.410376 465.46116,208.410376 C466.151379,208.410376 466.908815,208.437966 467.708781,208.502896 L467.708781,208.502896 Z M323.889701,220.167217 C325.570748,209.493644 324.399637,198.246283 322.029201,189.605031 C320.564534,198.52405 321.190648,208.783151 323.889701,220.167217 L323.889701,220.167217 Z M467.267306,215.939526 C467.354854,214.383495 467.446966,212.828708 467.539493,211.289895 C466.47066,211.197997 465.46448,211.17829 464.591073,211.215837 C457.854228,211.506258 445.449372,213.353747 441.692895,218.433822 C441.172379,219.137055 440.837746,219.879494 440.685885,220.671097 C440.760363,221.205263 440.836501,221.745238 440.914091,222.286872 C444.185734,222.012009 448.03287,220.682714 452.074811,219.285169 C456.901158,217.616911 461.845964,215.907994 466.255109,215.907994 C466.595758,215.907994 466.933296,215.918159 467.267306,215.939526 L467.267306,215.939526 Z M469.835245,220.182361 C469.687948,223.198377 469.584426,226.102581 469.5253,228.924431 C470.012208,229.017573 470.517995,229.11922 471.039549,229.224601 C472.085769,229.434741 473.25771,229.670396 474.40849,229.846723 C474.706403,225.228623 474.025519,220.948033 469.995196,219.339727 C469.956816,219.324791 469.918229,219.309855 469.879434,219.294711 C469.864289,219.59094 469.849767,219.886962 469.835245,220.182361 L469.835245,220.182361 Z M470.033784,216.40897 C470.370699,216.50709 470.702427,216.620769 471.028554,216.750628 C476.689304,219.009685 477.55462,224.557337 477.182852,230.114947 C478.434665,230.124282 479.450803,229.954178 479.982523,229.419805 C481.708797,227.682261 480.004928,218.173896 478.347531,215.849495 C476.735568,213.588987 473.508529,212.300143 470.309705,211.675946 C470.215311,213.244009 470.121747,214.826386 470.033784,216.40897 L470.033784,216.40897 Z M439.118526,233.918832 C439.335736,234.15511 439.608338,234.355915 439.935503,234.522699 C439.817666,233.747899 439.699621,232.975588 439.581784,232.205766 C439.316028,230.465941 439.050271,228.726945 438.788042,226.986082 C438.090977,230.055618 437.935589,232.632477 439.118526,233.918832 L439.118526,233.918832 Z M466.74513,228.515975 C466.805708,225.778555 466.907778,222.964174 467.05051,220.046071 C467.071879,219.606499 467.094077,219.165474 467.116898,218.72445 C463.011266,218.448758 457.931404,220.210988 452.98556,221.920112 C448.841133,223.352715 444.891512,224.718106 441.317186,225.0496 C441.359715,225.335456 441.402659,225.622558 441.445811,225.910696 C441.739989,227.869997 442.038731,229.827016 442.337888,231.785072 C442.506761,232.88784 442.676255,233.996416 442.845128,235.109348 C444.41228,235.143369 446.377962,234.899623 448.709604,234.37417 C451.04415,233.848094 453.381393,232.807352 455.855352,231.704791 C458.894017,230.35081 462.036205,228.951606 465.27901,228.533193 C465.517174,228.502491 465.772143,228.488178 466.04267,228.488178 C466.26652,228.488178 466.501157,228.49772 466.74513,228.515975 L466.74513,228.515975 Z M322.433955,225.67027 C318.534124,211.723451 317.506782,199.235995 319.379523,188.555576 C319.598808,187.305109 319.886762,186.040743 320.201894,184.78343 C319.8739,184.07833 319.506696,183.301663 319.121858,182.487863 C313.966064,171.579465 309.102582,160.51092 311.137556,155.516518 C311.612432,154.351103 312.456794,153.514692 313.579567,153.097731 C315.053569,152.550911 316.590847,152.762295 318.026469,153.709273 C322.64017,156.753087 325.604149,167.184159 325.746052,170.086496 C325.943761,174.131638 324.803977,178.357048 323.701327,182.442848 C323.516481,183.128241 323.329559,183.821101 323.148654,184.515413 C323.657346,185.632287 324.020816,186.492554 324.195497,187.064267 C327.995747,199.505463 328.745507,213.792083 325.464944,226.151538 L325.544401,226.432623 C325.891689,227.666703 326.241881,228.909495 326.578174,230.162451 C326.641656,228.760343 326.733976,227.369022 326.860112,225.990977 C327.732895,216.429299 329.724718,206.612674 331.650775,197.119245 C334.796905,181.612453 338.050083,165.577097 336.537908,150.175894 C336.414469,148.920033 336.326714,147.433288 336.233772,145.859002 C335.965111,141.309358 335.622595,135.503439 334.140709,130.861898 C333.563971,130.676237 332.979763,130.468793 332.387466,130.239569 C331.258469,129.802279 330.165778,129.360217 329.099226,128.928943 C324.104422,126.908861 319.792368,125.169243 315.074938,125.298895 C313.180206,125.89156 311.395636,126.439625 309.879727,126.743737 C309.171044,126.886043 308.411533,127.000136 307.614265,127.099709 C307.342493,127.221893 307.067816,127.350923 306.791064,127.48659 C306.307268,127.725358 305.745466,127.657939 305.336355,127.348433 C305.078898,127.373949 304.818743,127.399257 304.556721,127.424772 C300.805846,127.790495 296.554163,128.204759 294.138915,129.756848 C285.448628,135.340389 283.724014,153.022844 283.402451,158.309326 C282.905377,166.48549 284.047029,173.91403 285.255483,181.778615 C286.001509,186.632785 286.772844,191.652288 287.135484,196.902881 C287.345641,199.939849 287.034866,204.668101 286.674716,210.141697 C285.730981,224.500913 284.304694,246.200297 292.277793,251.174784 C295.416038,253.132425 300.064177,252.371939 306.091924,248.915106 C314.942371,243.840424 320.044639,235.513655 322.592662,226.23576 L322.433955,225.67027 Z M327.144124,253.993315 C327.256153,254.053266 327.366729,254.113839 327.477305,254.176487 C327.448468,253.845615 327.419631,253.514121 327.391209,253.183456 C327.309677,253.45417 327.227316,253.724468 327.144124,253.993315 L327.144124,253.993315 Z M470.489781,231.95725 C470.153488,231.889831 469.815536,231.821789 469.481318,231.755822 C469.391695,240.391059 469.737946,248.334058 470.537496,256.515823 C470.602016,257.175285 470.711763,258.065631 470.851798,259.161346 C471.801964,252.703433 472.419158,246.527643 473.060001,240.107691 C473.175971,238.94684 473.382809,237.629575 473.602094,236.234935 C473.785281,235.069727 473.976559,233.852865 474.132569,232.627084 C472.918099,232.445986 471.681638,232.196846 470.489781,231.95725 L470.489781,231.95725 Z M331.394355,266.63739 C331.424644,265.826702 331.343735,264.986143 331.181294,264.161141 C331.254112,264.986972 331.325271,265.812389 331.394355,266.63739 L331.394355,266.63739 Z M327.971682,259.643237 C327.916082,259.038125 327.860276,258.433013 327.804884,257.825827 C327.337892,257.419031 326.834802,257.060984 326.301215,256.747745 C325.721364,258.727168 325.256032,260.66282 325.169106,262.676056 C325.07326,264.901921 325.373869,267.201013 325.900195,268.92777 C326.947245,269.5111 327.899071,270.253747 328.726421,271.179358 C328.783057,271.242421 328.839072,271.306521 328.894256,271.371036 C328.916039,271.357552 328.93803,271.343446 328.959606,271.328925 C328.697791,267.537901 328.343242,263.6834 327.971682,259.643237 L327.971682,259.643237 Z M296.057712,269.916859 C295.79569,269.934907 295.136797,270.536699 294.519397,272.681454 C294.198041,273.797084 294.079374,275.022035 294.131654,276.331002 C294.578108,275.681705 295.18887,274.96084 296.131153,274.30117 C296.89585,273.766175 297.832116,273.191142 298.902194,272.608434 C297.479642,270.532551 296.514331,269.891966 296.057712,269.916859 L296.057712,269.916859 Z M301.404161,271.350084 C307.519041,268.505001 316.184848,266.020662 322.763609,267.701159 C322.396197,265.674232 322.334582,263.694394 322.383957,262.556361 C322.488102,260.140893 323.062766,257.853832 323.721658,255.640413 C315.753746,253.251498 303.73601,257.609671 297.668845,261.414179 C291.345675,265.380077 288.039802,268.816166 287.842923,271.625776 C287.765955,272.721491 287.743964,276.388256 290.693214,277.559273 C290.987185,277.675856 291.242568,277.775221 291.465795,277.856124 C291.221822,275.717178 291.319743,273.717218 291.84026,271.909558 C292.166594,270.776296 293.159912,267.325479 295.86187,267.135461 C295.954812,267.128823 296.06518,267.121355 296.193183,267.121355 C297.087128,267.121355 298.830828,267.502428 301.404161,271.350084 L301.404161,271.350084 Z M469.179671,268.852883 C468.850018,265.461188 468.464142,262.460315 468.211663,260.494791 C468.009183,258.919052 467.849231,257.674186 467.762513,256.786744 C466.940349,248.369323 466.591402,240.205812 466.697621,231.307952 C466.276478,231.269783 465.913423,231.261693 465.635634,231.297788 C462.797998,231.663925 459.976751,232.921031 456.989951,234.251778 C454.500847,235.360562 451.92627,236.507308 449.32244,237.093957 C446.983538,237.620863 444.976156,237.893858 443.267724,237.909416 C444.283032,244.687207 445.257471,251.636345 445.967399,258.750194 L446.063038,259.700491 C446.753465,266.52786 447.99366,278.784017 445.848317,287.192518 C447.053659,286.351129 448.286593,285.562223 449.463721,284.810241 C449.888391,284.538698 450.308912,284.269852 450.72155,284.00308 C456.075467,280.538572 461.616928,277.632915 467.238677,275.162267 C468.019556,272.935157 468.745458,270.817785 469.179671,268.852883 L469.179671,268.852883 Z M469.465551,277.237528 C467.694259,282.297275 465.995784,287.472359 467.201541,291.968897 C469.544386,290.108754 469.996441,283.795429 469.75558,277.113685 C469.659941,277.154551 469.56119,277.196662 469.465551,277.237528 L469.465551,277.237528 Z M424.270829,287.041292 C426.048345,289.313832 429.435543,292.243967 431.806602,292.291057 C432.68312,292.322173 433.345954,291.913303 433.896345,291.008643 C434.636355,289.792404 434.320393,289.309268 434.216871,289.150574 C433.203429,287.59807 428.54471,287.018059 425.322858,287.018059 C424.950467,287.018059 424.596956,287.026356 424.270829,287.041292 L424.270829,287.041292 Z M465.08545,294.382498 C463.01666,289.435809 464.295443,283.932964 465.989561,278.787129 C461.308228,280.959889 456.701374,283.454393 452.236215,286.343039 C451.81922,286.613337 451.394342,286.884673 450.96573,287.15912 C448.296551,288.86534 445.554139,290.61865 443.521239,292.662587 C443.082254,293.2928 442.592442,293.852274 442.048482,294.328771 C441.510123,294.799252 440.702482,294.786805 440.179061,294.299729 C439.656054,293.811615 439.587178,293.006321 440.020146,292.436682 C440.433614,291.892143 440.891063,291.369594 441.38295,290.865092 C445.746039,284.271096 443.984497,266.855828 443.289299,259.981576 L443.19283,259.026715 C442.465269,251.735711 441.454317,244.596554 440.407474,237.636421 C438.99488,237.313225 437.892438,236.703964 437.066125,235.805528 C434.107125,232.588084 435.715976,226.881115 437.808416,220.218456 C436.936877,213.896211 436.270931,208.100456 435.776139,202.503639 C433.038291,212.751124 428.254474,222.129007 423.564635,231.323718 C420.460828,237.408441 417.529005,243.155654 415.276613,248.990823 C411.786722,258.032233 417.693728,274.857948 422.666749,284.38685 C422.707618,284.380626 422.74911,284.375233 422.790395,284.369839 C424.454016,284.148705 434.058994,283.808913 436.551624,287.626697 C437.181058,288.590478 437.644731,290.211024 436.278815,292.457218 C435.213093,294.209698 433.632041,295.095273 431.751418,295.078263 C427.695992,294.997982 422.900971,290.276369 421.187767,287.491859 C416.028655,288.691295 412.158698,291.707726 408.494541,295.275749 L465.884586,295.151075 C465.532941,295.019556 465.238141,294.748843 465.08545,294.382498 L465.08545,294.382498 Z M297.730046,276.585535 C296.814318,277.225912 296.383631,277.948644 295.967259,278.647312 C295.573708,279.307189 295.176215,279.841562 294.706733,280.223465 C295.29011,282.656151 296.274922,285.256659 297.508064,287.900937 C297.810748,288.088051 298.114677,288.282217 298.421095,288.48406 C300.326199,289.742825 302.055585,291.626824 303.727504,293.447967 C305.61041,295.498128 307.543936,297.603883 309.583889,298.620147 C309.270832,293.43718 306.646465,287.998435 304.301545,283.137834 C303.667963,281.825756 303.070064,280.586283 302.532742,279.386225 C301.745847,277.627522 301.016418,276.173138 300.351302,274.976398 C299.373958,275.510772 298.489972,276.053235 297.730046,276.585535 L297.730046,276.585535 Z M387.543167,298.108385 C387.041529,301.54966 386.466865,305.495229 385.837847,309.824568 C388.983976,308.360019 391.923268,306.652347 394.536847,304.739721 C397.193786,302.795978 399.573559,300.436935 401.856862,298.077891 L387.543167,298.108385 Z M514.191621,264.770402 C501.052772,267.266358 486.58037,270.355809 472.502349,275.981045 C472.973283,286.176047 471.850095,293.927991 466.932051,295.148794 L553.344074,294.961887 L553.347394,294.961887 C553.770612,294.961887 554.17101,295.154395 554.435521,295.485059 C554.70107,295.816553 554.80065,296.250939 554.706256,296.664788 C553.773516,300.770296 552.632694,305.798718 551.359306,311.420843 C552.050562,310.85722 552.738499,310.305213 553.419175,309.75943 C559.652307,304.76005 565.035684,300.442951 566.994935,292.123442 C568.980326,283.691915 567.65362,276.979469 563.05133,272.172389 C556.375063,265.199187 544.063356,263.078495 532.565514,263.078495 C525.689878,263.078495 519.104272,263.837322 514.191621,264.770402 L514.191621,264.770402 Z M384.957802,296.515637 C385.05759,295.832319 385.643249,295.324498 386.334298,295.323046 L404.551351,295.283839 C408.822743,290.897661 413.396819,286.679926 419.823926,284.960015 C414.545939,274.600926 408.91444,257.730818 412.675688,247.986798 C414.979945,242.017621 417.94351,236.207967 421.080718,230.056863 C426.601433,219.234138 432.255545,208.148998 434.399021,195.760699 C432.608019,192.755678 430.825317,189.641126 429.819758,186.22433 C427.41924,178.072436 426.823623,168.321777 429.338659,160.227967 C423.495966,148.402877 413.365492,137.395736 399.041424,127.338269 C399.07524,131.949938 399.918357,135.758594 400.737409,139.460417 C402.154982,145.86647 403.493928,151.917587 399.961094,160.31696 C397.308512,166.623233 392.141515,174.913699 386.138871,182.49305 L385.351976,183.485458 C381.746738,188.024729 377.259588,193.673199 375.959644,197.795095 C375.7582,198.435057 375.128352,198.84123 374.463651,198.759498 C373.798327,198.67984 373.283826,198.137376 373.239222,197.468372 C372.60647,187.964778 366.02439,179.207772 359.659105,170.738698 C354.104159,163.348327 348.360217,155.706329 346.323999,147.367943 C344.954763,141.760962 344.32533,136.58401 344.322011,131.708889 C342.158411,132.165056 339.804986,132.152817 337.274183,131.670097 C338.460854,136.282181 338.768309,141.479254 339.017054,145.694914 C339.108129,147.240988 339.194639,148.701595 339.312477,149.903521 C340.865729,165.721062 337.570228,181.964899 334.383022,197.673325 C332.471902,207.093942 330.495639,216.834436 329.636547,226.244057 C328.754013,235.910287 329.561654,246.337002 330.48734,256.53885 C330.651856,256.713724 330.81326,256.895444 330.970307,257.082558 C333.700064,260.330703 336.247464,268.19114 331.835622,272.56093 C331.855953,272.886201 331.875662,273.209605 331.894333,273.532801 C331.984786,275.081364 332.098474,276.586157 332.236642,278.050291 C333.157349,281.257984 333.588036,284.844884 334.010424,288.366439 C334.107308,289.175053 334.205022,289.98823 334.309166,290.798503 C335.5838,296.034368 337.360694,300.836263 339.741711,305.545637 C344.756847,311.596962 352.713141,315.655795 360.219662,315.655795 L360.308247,315.655795 C367.788836,315.623849 375.711315,313.981314 382.83113,311.125444 C383.870505,303.973218 384.634994,298.729677 384.957802,296.515637 L384.957802,296.515637 Z M360.319865,318.443416 L360.221737,318.443416 C354.730273,318.443416 349.023052,316.48619 344.184465,313.229332 C349.608089,321.827022 355.793298,331.370237 364.403921,338.990247 C365.778135,340.207316 367.073929,341.298467 368.217033,342.260796 C372.607715,345.958055 375.656338,348.524542 376.805251,352.780031 C378.848938,338.576605 380.846777,324.786406 382.372229,314.284803 C375.318385,316.914145 367.615607,318.4123 360.319865,318.443416 L360.319865,318.443416 Z M302.167821,363.340548 C300.040734,364.092114 298.033145,365.809121 296.382387,367.831277 C300.761865,369.489578 305.206693,370.912638 309.657123,372.07183 C310.419745,370.809124 310.860182,369.593714 310.856882,368.455474 C310.852506,367.030961 310.106066,365.75 308.574804,364.539154 C307.220091,363.467918 305.839861,362.935618 304.397807,362.935618 C303.67149,362.935618 302.929613,363.071079 302.167821,363.340548 L302.167821,363.340548 Z M334.514967,302.748059 C332.826658,299.568163 332.10698,295.494601 331.570074,291.3586 C330.610157,287.386893 329.929688,283.176626 329.486761,278.587154 C329.041345,277.089829 328.480788,275.713651 327.74887,274.525209 C327.212793,274.50488 326.750158,274.367345 326.368639,274.188944 C325.149812,273.620757 324.286364,272.41323 323.681826,270.960091 C318.145551,268.607063 309.292616,270.772355 302.844762,273.729457 C303.540375,274.984696 304.284741,276.475175 305.07786,278.246947 C305.598585,279.410703 306.188393,280.633166 306.81264,281.926366 C309.584927,287.672957 312.727736,294.185842 312.376092,300.626123 C312.354309,301.022962 312.164068,301.391796 311.852671,301.640105 C311.542311,301.888 311.140876,301.991306 310.747117,301.923472 C307.155779,301.304669 304.369177,298.268946 301.674066,295.333418 C301.504986,295.148794 301.336736,294.966036 301.169731,294.784938 C305.668914,302.41615 311.153946,309.518381 313.893246,313.065867 C317.588314,317.850751 322.055341,321.709816 326.784804,325.795824 C330.468254,328.978417 334.27701,332.269296 337.689518,336.03999 C341.794527,340.576357 344.155835,346.317969 346.439139,351.869978 C348.141347,356.008884 349.901644,360.288644 352.363571,363.997313 C352.773719,364.615493 353.257516,365.487377 353.810811,366.564007 C355.108473,366.623958 356.635585,366.875172 358.412272,367.314744 C362.550266,368.339098 367.881156,371.61587 372.136781,376.093738 C372.509586,373.442407 372.819324,370.845219 373.079063,368.667273 C373.383615,366.118419 373.623438,364.104353 373.840441,362.992665 C375.912551,352.385889 373.520953,350.371823 366.421053,344.393311 C365.265709,343.419988 363.956015,342.31722 362.555868,341.078577 C353.23345,332.82794 346.760909,322.550998 341.049953,313.483865 C339.693995,311.330812 338.470812,309.193111 337.369822,307.037569 C336.275679,305.688566 335.314102,304.253059 334.514967,302.748059 L334.514967,302.748059 Z M350.040435,365.53986 C347.427063,361.601551 345.613863,357.193799 343.860827,352.93022 C341.567151,347.35394 339.401062,342.086543 335.62218,337.91009 C332.32502,334.266973 328.581821,331.032519 324.961854,327.905729 C320.336328,323.908921 315.553548,319.776861 311.686495,314.77022 C306.041719,307.46013 299.470842,298.392167 295.35795,289.860445 C291.539858,287.629394 287.97217,286.615412 283.590202,285.369093 L282.358305,285.017684 C271.149247,281.805219 260.9611,279.555706 249.773203,284.578735 C242.020841,288.060253 237.365649,293.555008 235.936873,300.91115 C233.426401,313.836933 241.315063,329.006215 250.245589,338.304854 C261.488463,350.009627 277.019325,360.057967 293.659268,366.767094 C295.677645,364.102901 298.293092,361.752778 301.2384,360.712035 C304.399881,359.593709 307.533978,360.162103 310.304397,362.352911 C312.513845,364.100204 313.63807,366.150158 313.644917,368.447383 C313.649273,369.881438 313.216719,371.322338 312.455342,372.76469 C314.078715,373.146593 315.703541,373.492194 317.322973,373.800662 C328.279345,375.884636 338.538859,377.198373 349.885255,377.94828 C348.180765,373.822858 347.027495,370.305452 348.912476,368.098256 C349.391708,367.536708 350.023423,367.129082 350.822559,366.873097 C350.528381,366.330633 350.266151,365.879237 350.040435,365.53986 L350.040435,365.53986 Z M351.032923,369.908613 C350.055372,371.052869 351.61962,374.896999 352.987195,378.138091 C353.951054,378.192026 354.924041,378.243057 355.906363,378.289317 C356.076273,378.297615 356.244523,378.306327 356.412773,378.316492 C355.656997,376.776226 354.87591,375.150909 354.065779,373.453402 C353.369959,371.995491 352.713141,370.619313 352.120013,369.412616 C351.466099,369.531689 351.166942,369.751371 351.032923,369.908613 L351.032923,369.908613 Z M357.741969,370.021047 C356.791387,369.785392 355.97358,369.621304 355.269047,369.511774 C355.68127,370.365195 356.119217,371.282924 356.58206,372.252721 C357.407543,373.983004 358.492351,376.256374 359.682963,378.626827 C364.365748,379.260566 368.140896,380.654376 371.026248,382.825684 C371.226654,381.815643 371.414613,380.761417 371.591369,379.688728 C367.586355,374.834973 361.960251,371.065109 357.741969,370.021047 L357.741969,370.021047 Z M294.706526,370.170821 C293.528983,372.047974 292.688978,373.969313 292.343142,375.500036 C291.283645,380.194267 290.837606,384.441459 291.796278,388.474154 C293.328784,387.162076 295.054021,385.780919 296.886722,384.313674 C300.842567,381.146639 305.116863,377.724242 307.881473,374.483979 C303.46154,373.290766 299.051565,371.84302 294.706526,370.170821 L294.706526,370.170821 Z M374.763638,386.778098 C375.455931,387.818841 376.039931,388.9548 376.516674,390.188049 C376.374149,388.648406 375.92894,387.036158 375.18084,385.356905 C375.127522,385.236588 375.072545,385.116686 375.016324,384.996784 C374.931473,385.59588 374.847244,386.18813 374.763638,386.778098 L374.763638,386.778098 Z M361.262148,381.699268 C363.775317,386.459466 366.443874,390.83465 368.016627,391.204728 C368.066003,391.19 369.085668,390.819714 370.351173,385.844189 C368.12015,383.807927 365.109077,382.444611 361.262148,381.699268 L361.262148,381.699268 Z M322.539137,391.756112 C323.937417,392.018113 325.273666,392.315794 326.565519,392.602895 C330.258305,393.424992 333.74778,394.19834 337.85756,393.949201 C343.017503,393.633265 351.020683,392.327203 352.626008,390.696492 C354.307678,388.987368 352.754633,384.799506 351.091427,380.819294 C339.07286,380.078099 328.320422,378.730134 316.801834,376.539326 C314.819762,376.162402 312.830637,375.729468 310.843171,375.244881 C307.958441,379.020969 303.244745,382.79436 298.629385,386.489545 C296.639637,388.082294 294.544499,389.759887 292.74603,391.357406 C293.483549,393.084786 294.527903,394.782293 295.944646,396.468184 C302.888121,392.814487 307.630239,390.855809 314.062118,390.855809 C316.557446,390.855809 319.308572,391.151 322.539137,391.756112 L322.539137,391.756112 Z M374.082547,391.59078 C373.714721,394.194192 373.362869,396.695541 373.030518,399.065579 C373.808285,398.426447 374.535224,397.598126 375.155322,396.52606 C374.963007,394.711555 374.607628,393.069642 374.082547,391.59078 L374.082547,391.59078 Z M540.284059,321.830963 C540.342563,321.551952 540.485503,321.297419 540.693378,321.102008 L546.702453,315.45416 C547.073807,315.105033 547.446612,314.763374 547.820247,314.428561 C549.596104,306.583061 550.965339,300.549161 551.600167,297.753035 L405.735117,298.068971 C405.491352,298.322052 405.247794,298.57534 405.003406,298.829872 C402.287756,301.655871 399.479579,304.577708 396.183457,306.989857 C392.976127,309.336661 389.302634,311.389311 385.364216,313.084952 C382.525542,332.631906 378.76056,358.68573 375.657997,380.48448 C376.455058,381.686199 377.155235,382.937288 377.727617,384.222399 C379.786034,388.842988 379.879184,393.286213 378.004991,397.104619 C378.07449,397.976503 378.110796,398.878881 378.113907,399.81196 C378.11453,399.984968 377.991091,414.161011 376.226022,421.213871 C398.455557,420.023977 471.481024,412.195487 522.482756,406.376084 C524.501963,396.884729 540.116847,322.62547 540.284059,321.830963 L540.284059,321.830963 Z M375.323157,400.763502 C374.446432,401.578338 373.498132,402.201913 372.52639,402.671564 C371.257358,411.775415 370.345364,418.524785 370.03044,421.2927 C370.620456,421.375884 371.751942,421.388123 373.363491,421.339167 C374.545805,417.348583 375.26901,406.872288 375.323157,400.763502 L375.323157,400.763502 Z M364.217829,403.643435 L318.909004,407.21125 C337.999048,413.502379 357.556085,419.46471 367.201725,421.665682 C367.460427,419.183417 368.339227,412.595645 369.5788,403.6536 C367.520176,404.068901 365.577106,403.948999 364.217829,403.643435 L364.217829,403.643435 Z M341.549309,417.33904 C326.54664,412.727786 311.641684,407.733385 311.492935,407.683598 C310.864954,407.472628 310.471818,406.849054 310.552934,406.191667 C310.633844,405.534072 311.166393,405.024384 311.826738,404.971901 L364.217829,400.846686 C364.371557,400.835899 364.521965,400.848139 364.669262,400.885478 C364.711169,400.896473 367.230147,401.505526 369.99289,400.671189 C370.395362,397.785863 370.827916,394.70139 371.28495,391.46092 C370.803643,392.359357 370.27628,393.034584 369.692073,393.444077 C368.991689,393.936962 368.205208,394.098768 367.418313,393.917877 C364.593746,393.263809 361.536203,388.455069 357.860636,381.220696 C357.185561,381.156804 356.490363,381.108262 355.773382,381.074449 C355.239587,381.048518 354.707453,381.021966 354.178845,380.994791 C356.010508,385.535306 357.289291,389.932064 354.613266,392.651852 C351.439337,395.876141 338.161282,396.723546 338.027885,396.731636 C333.522686,397.009403 329.849609,396.190417 325.959736,395.324135 C324.690289,395.041597 323.37769,394.749517 322.025881,394.496229 C310.904164,392.413707 306.132794,394.198963 296.278864,399.44603 C295.717478,399.744748 295.024147,399.626298 294.594497,399.155817 C292.84644,397.243606 291.548364,395.31314 290.608778,393.376036 C289.028556,394.991811 287.997688,396.431674 288.020093,397.489011 C288.026525,397.786692 288.121126,398.193073 288.803462,398.692597 C289.289955,399.049191 289.492021,399.677329 289.304477,400.250495 C289.117141,400.823453 288.58231,401.210957 287.979639,401.210957 L1.39392301,401.210957 C0.624039352,401.210957 0,400.58676 0,399.816939 C0,399.047117 0.624039352,398.42292 1.39392301,398.42292 L285.350499,398.42292 C285.270835,398.107192 285.238471,397.811171 285.232662,397.548962 C285.185984,395.365001 286.841099,393.082089 289.483515,390.553564 C287.812218,385.262311 288.477542,379.96442 289.623551,374.886004 C290.00092,373.215672 290.851713,371.163022 292.069918,369.125308 C275.272305,362.265784 259.611988,352.080947 248.234888,340.236565 C238.805213,330.417865 230.499556,314.286255 233.199854,300.379473 C234.788582,292.198537 240.124451,285.855132 248.630929,282.035896 C260.678747,276.627023 271.38015,278.973828 283.125907,282.337519 L284.353032,282.687268 C287.614094,283.615161 290.584505,284.459662 293.586242,285.815511 C292.920503,284.110328 292.381108,282.441655 291.997722,280.832726 C291.340074,280.734605 290.573717,280.512019 289.663591,280.15003 C286.487172,278.888776 284.766707,275.629222 285.061508,271.430987 C285.416472,266.367922 291.581142,261.941707 296.187374,259.052438 C302.332544,255.198559 315.304388,250.084463 324.554817,252.927472 C325.358517,250.304975 326.102053,247.59473 326.105787,244.718323 C326.112011,240.034257 325.145456,235.580244 323.92248,231.018777 C320.749173,239.546143 315.392144,246.796489 307.479209,251.334308 C300.4903,255.341695 294.879132,256.08289 290.801715,253.540051 C281.413118,247.681856 282.846251,225.879372 283.892679,209.959147 C284.24619,204.585746 284.550949,199.944621 284.354277,197.094766 C283.999313,191.960756 283.236898,186.999752 282.499793,182.202007 C281.322251,174.538019 280.104461,166.61369 280.619791,158.140259 C281.057324,150.940322 283.104539,133.532729 292.631719,127.411496 C295.61354,125.495551 300.221017,125.046229 304.285986,124.65022 C304.909403,124.589232 305.520372,124.529696 306.112048,124.466425 L306.510786,124.130575 C314.958553,117.013615 322.254295,110.867074 325.981519,100.343897 C328.686796,92.7060473 328.2642,85.2132003 327.816709,77.2797439 C327.576471,73.0234251 327.328349,68.6221035 327.602611,64.185724 C328.274573,53.3210957 333.474555,38.9703851 339.967428,30.0627756 C347.407147,19.8542901 356.206973,15.0034392 366.396573,9.38691552 C367.185128,8.9523221 367.983226,8.51233515 368.790867,8.06405047 C391.235538,-4.38731054 412.151852,-2.38838822 429.279325,13.8450766 C437.985172,22.0965433 441.658872,33.235204 445.21183,44.0068977 L445.34419,44.4083002 C446.085444,46.6557394 446.852216,48.8950884 447.61878,51.1329852 C451.017388,61.0578959 454.531966,71.320939 455.62279,82.0264584 C456.181894,87.5145747 453.74507,93.5779309 451.389156,99.4417269 C450.973821,100.475001 450.556204,101.513877 450.153732,102.552959 C451.197878,107.517697 452.651549,112.518322 454.973855,117.949806 C458.054842,125.156796 461.664852,133.601185 464.458922,141.998484 C473.117053,164.218137 471.812545,186.906403 470.48003,208.860113 C474.290238,209.542808 478.387571,211.104233 480.617557,214.230816 C482.338022,216.643795 485.228561,228.09528 481.960653,231.384292 C480.763817,232.588914 478.956634,232.947583 476.908382,232.891781 C476.744696,234.196391 476.544705,235.469262 476.356539,236.667869 C476.143477,238.022473 475.942656,239.301982 475.83457,240.384836 C474.932949,249.41131 474.000624,258.744178 472.028718,268.846038 C472.016685,268.906611 472.00486,268.967184 471.99262,269.02838 C472.12332,270.393771 472.237423,271.738003 472.32995,273.048836 C486.341791,267.555534 500.655486,264.50446 513.67152,262.03153 C527.35184,259.433097 553.570413,258.238431 565.065351,270.244827 C570.362424,275.776921 571.924597,283.352953 569.708718,292.76216 C567.529144,302.017237 561.522766,306.834067 555.163498,311.934679 C553.574355,313.208795 551.946002,314.515065 550.340055,315.920492 C543.001991,348.340747 532.254117,396.095823 530.480127,405.134122 L654.60587,405.134122 C655.375753,405.134122 656,405.758318 656,406.527725 C656,407.297546 655.375753,407.921743 654.60587,407.921743 L528.846173,407.921743 C528.709665,407.921743 528.573778,407.902036 528.443286,407.862622 C527.195207,407.485697 527.404534,406.390398 527.669668,405.004055 C527.826508,404.183825 528.070896,402.98584 528.391214,401.463207 C528.994507,398.593646 529.906708,394.384002 531.101885,388.950651 C533.113623,379.803652 535.955824,367.062285 539.549029,351.079827 C542.064688,339.888683 544.604619,328.6407 546.727349,319.256801 L542.922119,322.832914 C542.266546,325.950992 538.142866,345.559764 534.015659,365.173515 C531.765134,375.867003 529.513572,386.56215 527.822359,394.586259 C526.077828,402.862204 525.384497,406.150801 525.053184,407.521585 C525.083266,407.865318 524.985345,408.209052 524.775603,408.486196 C524.749878,408.520216 524.722286,408.552785 524.693449,408.584109 C524.686188,408.593029 524.678719,408.601949 524.67125,408.610039 C524.418357,408.896311 524.059244,409.066829 523.677725,409.080935 C523.60221,409.08384 523.527939,409.080313 523.454498,409.070771 C519.457161,409.526108 483.762649,413.583282 448.070213,417.336966 C402.760765,422.102143 383.547697,423.656099 375.218182,424.016636 C375.081051,424.259759 374.937904,424.465958 374.787288,424.63129 C374.485849,424.964029 374.160759,425.322906 372.775965,425.322906 C369.916752,425.322906 362.543213,423.792805 341.549309,417.33904 L341.549309,417.33904 Z" id="Fill-24" fill="#231F20"></path>
                    <path d="M112.339908,345.232502 L179.644277,345.232502 C181.301132,345.232502 182.644277,346.575648 182.644277,348.232502 C182.644277,348.476582 182.61449,348.71975 182.555577,348.956613 L170.236011,398.487613 C169.903415,399.824817 168.702658,400.763502 167.324711,400.763502 L124.659604,400.763502 C123.28166,400.763502 122.080904,399.824821 121.748306,398.48762 L109.428611,348.95662 C109.028691,347.348755 110.007925,345.721124 111.61579,345.321204 C111.852656,345.26229 112.095826,345.232502 112.339908,345.232502 Z" id="Path-8" fill="#AEE2DF"></path>
                    <line x1="156.059089" y1="345.232419" x2="150.139636" y2="399.818391" id="Stroke-26" stroke="#231F20" stroke-width="2.69568" stroke-linecap="round" stroke-linejoin="round"></line>
                    <line x1="177.481854" y1="345.232419" x2="163.669796" y2="399.818391" id="Stroke-28" stroke="#231F20" stroke-width="2.69568" stroke-linecap="round" stroke-linejoin="round"></line>
                    <line x1="102.502322" y1="345.232419" x2="177.481854" y2="345.232419" id="Stroke-30" stroke="#231F20" stroke-width="2.69568" stroke-linecap="round" stroke-linejoin="round"></line>
                    <line x1="116.314317" y1="399.818349" x2="163.669942" y2="399.818349" id="Stroke-32" stroke="#231F20" stroke-width="2.69568" stroke-linecap="round" stroke-linejoin="round"></line>
                    <line x1="102.502322" y1="345.232419" x2="116.314379" y2="399.818391" id="Stroke-34" stroke="#231F20" stroke-width="2.69568" stroke-linecap="round" stroke-linejoin="round"></line>
                    <path d="M123.388015,298.571709 C117.458604,305.368585 102.354279,310.942168 89.6770273,299.696259 C85.6419325,296.125125 82.8007692,290.51192 80.7979515,284.681938 C88.0196303,278.989905 100.559336,275.578087 100.559336,275.578087 C92.1339748,274.542323 83.7081988,276.346041 78.7654669,277.677827 C76.6937724,269.085531 76.2300996,261.657406 76.2300996,261.657406 C76.2300996,261.657406 102.462988,255.185802 119.096292,268.335831 C129.948726,276.91817 128.133452,293.116369 123.388015,298.571709 Z" id="Stroke-36" stroke="#231F20" stroke-width="2.69568" stroke-linecap="round" stroke-linejoin="round"></path>
                    <path d="M76.2293735,261.656348 C76.2293735,261.656348 138.511945,285.69175 140.071213,345.232502" id="Stroke-38" stroke="#231F20" stroke-width="2.69568" stroke-linecap="round" stroke-linejoin="round"></path>
                    <path d="M114.215508,287.267468 C114.215508,287.267468 96.0496973,291.896769 88.1770093,298.218392" id="Stroke-40" stroke="#231F20" stroke-width="2.69568" stroke-linecap="round" stroke-linejoin="round"></path>
                    <path d="M94.952027,271.697074 C94.952027,271.697074 94.6099256,264.421213 92.6365671,260.065114" id="Stroke-42" stroke="#231F20" stroke-width="2.69568" stroke-linecap="round" stroke-linejoin="round"></path>
                    <path d="M111.219704,284.371769 C111.219704,284.371769 110.888183,270.791502 109.408372,263.003463" id="Stroke-44" stroke="#231F20" stroke-width="2.69568" stroke-linecap="round" stroke-linejoin="round"></path>
                    <path d="M158.165388,223.143425 C158.165388,223.143425 128.872673,237.12136 128.860635,258.096768 C128.852135,272.686661 138.520596,281.529963 147.591157,282.440224 C156.661511,283.350484 170.73393,276.99733 173.317843,262.133405 C176.265641,245.174304 158.165388,223.143425 158.165388,223.143425 Z" id="Stroke-46" stroke="#231F20" stroke-width="2.69568" stroke-linecap="round" stroke-linejoin="round"></path>
                    <path d="M158.165388,223.143425 C158.165388,223.143425 135.187545,301.456539 140.071358,345.23244" id="Stroke-48" stroke="#231F20" stroke-width="2.69568" stroke-linecap="round" stroke-linejoin="round"></path>
                    <line x1="152.189381" y1="245.889651" x2="167.080437" y2="236.717137" id="Stroke-50" stroke="#231F20" stroke-width="2.69568" stroke-linecap="round" stroke-linejoin="round"></line>
                    <line x1="147.263121" y1="267.888335" x2="173.552439" y2="256.167381" id="Stroke-52" stroke="#231F20" stroke-width="2.69568" stroke-linecap="round" stroke-linejoin="round"></line>
                    <line x1="151.478063" y1="248.85362" x2="144.448077" y2="231.995958" id="Stroke-54" stroke="#231F20" stroke-width="2.69568" stroke-linecap="round" stroke-linejoin="round"></line>
                    <line x1="146.502055" y1="271.478076" x2="131.002104" y2="248.309994" id="Stroke-56" stroke="#231F20" stroke-width="2.69568" stroke-linecap="round" stroke-linejoin="round"></line>
                    <path d="M194.089495,292.989974 C194.089495,292.989974 176.394204,284.578569 160.913132,292.975038 C145.624997,301.266541 149.18169,315.745244 152.997914,320.486773 C157.603109,326.20847 169.152609,330.82574 179.105912,323.201789 C190.328455,314.605344 194.089495,292.989974 194.089495,292.989974 Z" id="Stroke-58" stroke="#231F20" stroke-width="2.69568" stroke-linecap="round" stroke-linejoin="round"></path>
                    <path d="M194.089495,292.989974 C194.089495,292.989974 147.501265,308.505685 140.071296,345.23246" id="Stroke-60" stroke="#231F20" stroke-width="2.69568" stroke-linecap="round" stroke-linejoin="round"></path>
                    <path d="M175.711868,301.66755 C175.711868,301.66755 186.177805,301.851967 190.83196,304.799112" id="Stroke-62" stroke="#231F20" stroke-width="2.69568" stroke-linecap="round" stroke-linejoin="round"></path>
                    <path d="M160.670922,312.351889 C160.670922,312.351889 177.967268,313.233523 184.260357,317.765119" id="Stroke-64" stroke="#231F20" stroke-width="2.69568" stroke-linecap="round" stroke-linejoin="round"></path>
                    <path d="M173.507296,302.992427 C173.507296,302.992427 172.796123,294.959813 177.481812,289.26861" id="Stroke-66" stroke="#231F20" stroke-width="2.69568" stroke-linecap="round" stroke-linejoin="round"></path>
                    <path d="M158.165388,314.614306 C158.165388,314.614306 156.045562,302.639857 159.610761,293.725194" id="Stroke-68" stroke="#231F20" stroke-width="2.69568" stroke-linecap="round" stroke-linejoin="round"></path>
                    <path d="M119.096375,268.335852 C129.948602,276.91819 128.133328,293.11639 123.388098,298.57173" id="Stroke-70" stroke="#231F20" stroke-width="2.69568" stroke-linecap="round" stroke-linejoin="round"></path>
                    <path d="M147.591116,282.440162 C156.661677,283.35063 170.733889,276.997475 173.317802,262.133343" id="Stroke-72" stroke="#231F20" stroke-width="2.69568" stroke-linecap="round" stroke-linejoin="round"></path>
                    <path d="M179.10587,323.201727 C190.328413,314.605489 194.089454,292.989912 194.089454,292.989912" id="Stroke-74" stroke="#231F20" stroke-width="2.69568" stroke-linecap="round" stroke-linejoin="round"></path>
                </g>
            </g>
        </g>
    </g>
</svg>