<?xml version="1.0" encoding="UTF-8"?>
<svg width="400px" height="253px" viewBox="0 0 400 253" version="1.1" xmlns="http://www.w3.org/2000/svg" xmlns:xlink="http://www.w3.org/1999/xlink">
    <title>laptop graphic</title>
    <defs>
        <polygon id="path-1" points="-1.99756313e-14 0 400 0 400 252.657923 -1.99756313e-14 252.657923"></polygon>
    </defs>
    <g id="Content-Pages" stroke="none" stroke-width="1" fill="none" fill-rule="evenodd">
        <g id="About-Us-with-Edits" transform="translate(-751.000000, -1007.000000)">
            <g id="laptop-graphic" transform="translate(751.000000, 1007.000000)">
                <path d="M124.635179,102.940225 L56.9132124,132.633263 C56.9132124,132.633263 51.4388907,135.777361 55.6467786,140.392736 C59.8546664,145.007744 76.3630134,133.039284 76.3630134,133.039284 L125.474704,109.927965 L132.936257,101.142813 L124.635179,102.940225" id="Fill-1" fill="#D5DD6F"></path>
                <path d="M293.651702,33.5776848 C293.651702,33.5776848 311.525057,34.9862994 310.945707,38.6152041 C310.366358,42.2444754 309.885948,62.6734173 306.790954,78.1498551 C303.564772,94.2789315 296.128138,126.436312 295.509212,130.150232 C294.88992,133.864885 290.907029,144.104824 286.524714,144.39175 C282.142398,144.67831 250.318116,132.007742 241.650959,127.67453 C232.984535,123.340585 193.422034,104.532795 187.793073,99.1977227 C182.164111,93.8622836 182.344769,94.7443167 187.136037,67.7739652 C191.926939,40.8032472 193.450983,12.7478521 200.17415,10.053382 C206.897316,7.35927845 196.459863,6.95802118 218.745948,14.3869605 C241.032034,21.8155334 293.651702,33.5776848 293.651702,33.5776848" id="Fill-2" fill="#AEE2DF"></path>
                <g id="Group-6" transform="translate(-0.000000, 0.000000)">
                    <mask id="mask-2" fill="white">
                        <use xlink:href="#path-1"></use>
                    </mask>
                    <g id="Clip-4"></g>
                    <path d="M302.107787,135.619057 C302.107787,135.619057 300.451822,128.201844 328.93779,127.67453 C351.224242,127.261546 366.906622,121.070824 366.906622,121.070824 C366.906622,121.070824 373.095878,134.690119 374.748544,142.531675 C376.690703,151.763524 387.797651,173.099417 388.779723,176.78622 C390.43239,182.976942 385.587987,184.420735 377.225713,185.040027 C366.081754,185.865628 353.349623,189.193315 345.858754,189.579914 C338.368618,189.96688 320.0504,193.01497 318.207548,189.579914 C316.364696,186.144859 302.107787,135.619057 302.107787,135.619057" id="Fill-3" fill="#FF7951" mask="url(#mask-2)"></path>
                    <path d="M313.035543,107.694849 L332.782897,127.442203 L339.899259,126.488347 L319.987371,105.956801 L313.035543,107.694849 Z M143.41805,123.35451 L156.629491,130.034069 C153.961772,122.941892 152.836053,121.635882 152.457515,121.416015 C151.608095,121.576885 148.240466,122.301713 143.41805,123.35451 Z M365.528422,123.060254 C365.831106,123.060254 366.107405,123.24824 366.21514,123.538098 L369.944451,133.599212 L397.834579,124.364065 L364.695126,94.7798618 L321.63051,105.546016 L341.706566,126.246127 L365.430581,123.066484 C365.463561,123.062453 365.496175,123.060254 365.528422,123.060254 Z M66.9530724,133.702183 L67.2334028,134.683889 L126.246804,106.071131 L130.186088,102.388726 L124.635179,102.940225 L100.725009,113.502636 C101.43408,114.114599 101.8434,115.078349 101.942706,116.369335 C101.966159,116.670553 101.801625,116.955281 101.529356,117.086101 L66.9530724,133.702183 Z M342.975931,127.554702 L353.968915,138.889579 L368.55196,134.059834 L365.044715,124.597124 L342.975931,127.554702 Z M84.1290821,136.437329 L85.7590294,142.080582 L98.9107402,137.092166 C97.9348972,135.896089 97.4951632,134.679492 97.5988672,133.453001 C91.028142,134.907787 85.9803622,136.02691 84.1290821,136.437329 Z M186.333156,100.398929 L284.618833,144.059018 C284.62946,144.063415 286.854881,144.9711 289.001149,143.772458 C291.077793,142.613393 292.461489,139.92332 293.114128,135.776995 L313.422143,37.9962786 C313.427639,37.9684287 313.435335,37.9405789 313.444129,37.913462 C313.460253,37.8625261 313.868106,36.5165737 312.974713,34.9199728 C311.911656,33.0214213 309.401142,31.5303566 305.713972,30.6087475 L202.285239,2.05498717 C202.242365,2.04326093 202.20059,2.02750379 202.160648,2.00808221 C202.138295,1.9974553 199.734416,0.87210273 197.593644,1.90401183 C196.061171,2.64239849 194.981258,4.317785 194.384319,6.88253351 L186.097532,62.4051796 C186.939256,62.9592444 188.669976,64.3803181 189.612106,67.1546731 L198.761871,6.94812716 C198.793018,6.74218508 198.910647,6.55896258 199.085075,6.44499819 C199.259503,6.33066735 199.474606,6.29622152 199.676151,6.35045538 L308.619515,35.5341346 C308.994388,35.6345406 309.225981,36.0097802 309.147928,36.3897837 L288.076242,138.837543 C288.031535,139.053013 287.893019,139.237335 287.697704,139.339573 C287.502389,139.441445 287.271162,139.449506 287.069984,139.363758 L186.966006,96.5519898 C186.926064,96.5351333 185.043636,95.7491088 182.252424,95.2771277 C182.81565,97.0822357 183.986442,99.0134008 186.333156,100.398929 Z M159.27156,133.012534 C159.996388,135.064626 160.771785,137.354907 161.593721,139.87275 C163.13279,144.5856 164.588676,149.345354 165.688011,153.025561 L182.969191,149.457852 L182.151652,144.581202 L159.27156,133.012534 Z M104.144308,135.157703 C104.274762,135.157703 104.404484,135.192515 104.519181,135.26104 L142.429381,157.827456 L164.24715,153.323114 C163.217439,149.878165 161.881014,145.508674 160.460307,141.125992 C159.273758,137.466673 158.251743,134.48381 157.373008,132.052814 L141.150122,123.849943 C129.662438,126.363023 111.930897,130.281053 99.138669,133.112207 C99.1027574,133.252189 99.0771063,133.395469 99.0628149,133.540581 C98.9679057,134.507263 99.4050745,135.510589 100.36626,136.539933 L103.884498,135.205341 C103.968414,135.17346 104.056361,135.157703 104.144308,135.157703 Z M102.631623,138.398542 L137.181889,158.910667 L140.301435,158.266457 L104.073584,136.701535 L101.586888,137.644765 C101.905329,137.89468 102.253818,138.146428 102.631623,138.398542 Z M2.43163663,136.058425 L40.7746085,159.143726 L69.5764521,148.218902 L66.3033654,136.763465 L60.5677684,139.544416 C60.2837735,139.692826 57.5702483,141.060032 55.6467786,140.392736 C54.9607935,140.154913 54.4400752,139.678168 54.1414225,139.013803 C53.5880906,137.784014 53.5246956,136.609924 53.9530698,135.523415 C54.7229707,133.570263 56.8245328,132.670641 56.9132124,132.633263 L94.3375067,114.840893 L81.8633527,107.469485 L2.43163663,136.058425 Z M144.296052,158.938517 L150.362549,162.549466 L166.029538,159.393642 C165.770828,158.494386 165.294449,156.849414 164.666729,154.732828 L144.296052,158.938517 Z M139.052591,160.020996 L145.097467,163.609958 L148.221411,162.980772 L142.168472,159.377885 L139.052591,160.020996 Z M86.1668827,143.493593 L93.2403704,167.982379 L135.051378,159.350401 L101.866852,139.649219 C101.855859,139.642989 101.845232,139.636027 101.834605,139.629065 C101.146055,139.170275 100.540688,138.706722 100.01887,138.239505 L86.1668827,143.493593 Z M191.061029,147.80262 C191.189651,147.80262 191.317174,147.8367 191.430039,147.90266 L229.143825,169.902551 L271.872044,147.317447 L172.687111,102.40375 L138.096536,120.663704 L141.345803,122.306477 C147.326186,120.999001 151.523447,120.093149 152.289683,119.956099 C153.334418,119.771044 154.440349,120.764476 156.729531,126.290833 C157.287626,127.638618 157.896291,129.213599 158.550762,131.005515 L183.143985,143.440459 C183.351759,143.545629 183.497238,143.743509 183.536081,143.973636 L184.405289,149.161032 L190.912619,147.817644 C190.961723,147.80775 191.011559,147.80262 191.061029,147.80262 Z M71.355909,149.111562 L79.2861451,176.867205 L142.953764,164.041996 L136.922079,160.46073 L92.8728261,169.555161 C92.4983193,169.631015 92.1271105,169.408217 92.020475,169.040306 L84.7919811,144.015045 L71.355909,149.111562 Z M152.239114,163.666757 L189.019931,185.560746 L183.211411,150.904577 L166.107224,154.435641 C167.051187,157.620414 167.644828,159.709517 167.657653,159.755323 C167.713353,159.951737 167.68477,160.162443 167.578501,160.336871 C167.471866,160.511299 167.297438,160.633325 167.097359,160.673634 L152.239114,163.666757 Z M146.978063,164.726516 L189.787633,190.141675 L189.337272,187.455266 L150.098342,164.098063 L146.978063,164.726516 Z M318.879241,182.731424 L321.329293,191.007218 L385.470725,179.688098 L369.064983,135.435102 L353.9931,140.42535 C353.727794,140.514396 353.432439,140.44184 353.236758,140.240295 L341.168625,127.797289 L334.086709,128.746015 L376.196002,170.856774 C376.390218,171.049158 376.459843,171.332053 376.379225,171.591863 C376.298607,171.851672 376.082404,172.045888 375.814899,172.095358 L318.879241,182.731424 Z M191.438101,191.121549 L195.083129,193.285406 C195.156052,193.327181 203.260349,197.854609 212.900418,192.310296 L283.647021,152.515103 L284.022994,149.883295 L213.618284,188.51246 C213.178916,188.781064 202.084061,195.399427 193.205465,189.758007 L190.988107,188.438072 L191.438101,191.121549 Z M226.128716,204.093335 C230.670435,207.901798 238.257678,211.215926 247.577108,211.881757 C260.880893,212.833414 268.494887,208.581187 270.877146,206.016805 C270.786268,205.314696 270.338838,203.243915 268.151162,201.045612 C265.617195,198.500285 260.19161,195.265309 248.732509,194.310353 C239.538404,193.544849 232.187151,196.506824 226.878096,203.114927 C226.61682,203.439963 226.367271,203.766466 226.128716,204.093335 Z M184.350322,68.4995262 C184.563959,68.4995262 184.766603,68.5926033 184.905853,68.754572 C185.045102,68.9161742 185.106664,69.130911 185.074784,69.3423497 L181.902469,90.2780851 C181.876452,90.4173342 181.617375,91.8658912 181.895507,93.7146062 C185.124254,94.1884196 187.358835,95.1257859 187.542791,95.2045716 L286.821168,137.663087 L307.572948,36.7712529 L200.088035,7.97820404 L190.039014,74.1028366 C189.977818,74.5026281 189.602945,74.7774619 189.204252,74.7169984 C188.804094,74.6561686 188.528894,74.2823947 188.589724,73.8826032 C189.796427,65.9410073 185.17409,63.5407926 184.976576,63.4422189 C184.692215,63.3007711 184.528048,62.9907587 184.574953,62.6763488 L192.93906,6.63738181 C192.941625,6.61832667 192.945289,6.59963797 192.949687,6.58058283 C193.651795,3.53762361 195.005077,1.51741236 196.97142,0.576748065 C199.560721,-0.661469567 202.265818,0.447392982 202.733402,0.658098854 L306.087013,29.1913383 C310.246164,30.2309427 313.00806,31.934179 314.278891,34.2501114 C315.374195,36.2446715 314.945088,38.0010423 314.850545,38.326079 L294.555356,136.040102 C293.833459,140.632757 292.195816,143.681213 289.693364,145.06491 C286.912046,146.603246 284.149417,145.452608 284.032888,145.402772 L185.699572,101.721429 C185.674654,101.710436 185.650469,101.697977 185.627016,101.684052 C182.61154,99.9188864 181.270352,97.3442439 180.703828,95.0634902 C177.700078,94.7435838 173.987624,94.9022544 170.431642,96.5435616 L103.830264,128.893326 C103.817072,128.899555 103.802781,128.905785 103.789589,128.911648 C103.757708,128.92484 101.52899,129.862206 100.13943,131.389182 C112.165789,128.727692 127.999877,125.229242 139.078608,122.802643 L136.169401,121.331733 C135.924983,121.207875 135.76961,120.957959 135.767045,120.683858 C135.764846,120.409758 135.915455,120.157277 136.158042,120.029388 L172.320299,100.940169 C172.520378,100.834266 172.758568,100.826937 172.964876,100.920381 L273.838754,146.598848 C274.093434,146.714645 274.260166,146.96456 274.268961,147.244158 C274.277389,147.524122 274.126047,147.783931 273.878697,147.914752 L229.468862,171.388852 C229.244964,171.507214 228.97636,171.501351 228.757226,171.373828 L190.933873,149.310175 L184.647875,150.608123 L190.670765,186.543551 L193.973167,188.509162 C202.095787,193.67054 212.778025,187.308688 212.885394,187.243461 L284.603443,147.893132 C284.846762,147.75938 285.144315,147.774404 285.373343,147.933075 C285.601639,148.091012 285.720733,148.364747 285.681157,148.63958 L285.046841,153.080527 C285.014594,153.305891 284.879376,153.503771 284.680762,153.615537 L213.625246,193.584425 C203.233232,199.560777 194.699828,194.757049 194.341445,194.550008 L191.755442,193.014603 L196.293864,220.094888 C196.30559,220.151321 197.927842,227.9555 205.015254,235.647547 C216.869017,248.513431 234.674946,251.21413 247.524706,251.21413 C276.037424,251.21413 289.673942,243.06989 296.092592,236.237157 C300.489199,231.557288 302.930456,225.825722 302.623009,220.906198 C302.324722,216.13545 299.541939,210.786453 294.987394,206.230809 C290.424421,201.666003 284.71814,198.469137 278.836698,197.166059 C278.689387,199.916961 277.98508,208.701381 274.781251,217.385761 C269.631966,231.344383 260.425768,238.722753 248.159389,238.722753 C237.221006,238.722753 229.450173,236.096075 225.061994,230.915643 C221.502348,226.713618 221.231178,222.050972 221.322423,219.955639 C219.053029,220.524728 213.619749,221.449269 209.283239,218.712291 C206.117887,216.7148 204.224466,213.196561 203.655744,208.255417 C203.103511,203.459751 204.058833,200.12217 206.494959,198.336118 C211.038511,195.003667 218.940164,198.471336 219.274362,198.620479 C219.50449,198.723083 219.665359,198.936721 219.700904,199.185904 L220.33522,203.62685 C220.37443,203.899485 220.257168,204.170655 220.032537,204.329325 C219.807173,204.48763 219.513284,204.507418 219.268865,204.379528 C217.627925,203.51765 212.886493,201.634123 210.691121,203.23622 C209.438612,204.150867 209.074366,206.156054 209.608276,209.195715 C210.104443,212.019907 211.183257,213.792035 212.814303,214.462995 C215.591223,215.604838 219.311007,213.393342 220.238845,212.793472 C220.515511,211.769625 221.599456,208.203382 224.175197,204.330791 C222.641625,202.886998 221.466802,201.336203 220.749303,199.729341 C219.4869,196.902218 219.770162,194.181731 221.568308,191.862134 C224.280001,188.365516 228.963168,185.806264 235.48882,184.256202 C241.416434,182.84832 247.211395,182.696245 249.428021,182.696245 C255.901638,182.696245 270.630895,187.133528 275.282181,191.120083 C277.586754,193.095954 290.904831,192.879752 301.543828,187.938974 C307.032808,185.38925 313.559926,180.684462 313.548566,172.736637 L303.278579,132.220646 C303.22691,132.018002 303.264654,131.802899 303.381916,131.630303 C303.498812,131.456975 303.684233,131.341911 303.891641,131.314061 L330.954703,127.687355 L311.083857,107.816142 C310.89697,107.629256 310.825147,107.35662 310.895504,107.102308 C310.965862,106.847628 311.167773,106.650847 311.423918,106.58672 L318.807785,104.740936 L320.45129,104.330151 L364.716013,93.2638789 C364.951638,93.2056141 365.200454,93.266444 365.381844,93.4280462 L399.754751,124.114883 C399.948967,124.288944 400.036913,124.55425 399.985611,124.810395 C399.930644,125.066541 399.743757,125.275048 399.498239,125.357131 L370.457474,134.97448 L387.152707,180.002142 C387.225996,180.206252 387.207674,180.433081 387.101405,180.621434 C386.991472,180.810519 386.804585,180.940974 386.592047,180.978718 L320.939395,192.564609 C320.571851,192.62837 320.214933,192.40777 320.109397,192.050487 L317.243065,182.367911 C317.184433,182.169297 317.212283,181.954927 317.320751,181.777568 C317.429219,181.600575 317.607311,181.477816 317.811421,181.439705 L374.17689,170.909909 L332.258881,128.991166 L304.901564,132.657815 L314.991627,172.463635 C315.006284,172.520434 315.013613,172.579432 315.01398,172.63843 C315.066015,179.588425 310.621404,185.33868 302.160922,189.26807 C291.154013,194.380344 277.236066,194.725169 274.327959,192.232976 C269.962133,188.491206 255.541423,184.162025 249.428021,184.162025 C246.082378,184.162025 229.072368,184.576475 222.727007,192.760291 C221.260127,194.652246 221.045024,196.796316 222.08756,199.132036 C222.670574,200.436947 223.669137,201.790228 225.033045,203.107964 C225.246683,202.819572 225.468382,202.530447 225.699242,202.242055 C229.573299,197.399851 236.735832,191.841979 248.854168,192.849703 C272.098507,194.786365 272.366012,205.800602 272.366012,206.268552 C272.366012,206.440049 272.305549,206.606048 272.195982,206.737602 C271.927011,207.060074 265.407954,214.626063 247.472671,213.343872 C238.801849,212.724214 230.469989,209.568756 225.288824,205.309199 C222.538288,209.521851 221.602754,213.370623 221.592127,213.415695 C221.551451,213.588658 221.44848,213.741465 221.303734,213.844436 C221.096693,213.991747 216.189628,217.4312 212.260971,215.820674 C210.131926,214.947069 208.753726,212.803366 208.164483,209.449295 C207.525403,205.811595 208.085331,203.322701 209.828143,202.051137 C212.350384,200.212316 216.58832,201.608471 218.693547,202.497833 L218.309146,199.807028 C216.762748,199.194332 210.720803,197.052461 207.359403,199.519368 C205.380967,200.971956 204.624624,203.854779 205.111996,208.087952 C205.627218,212.562612 207.291611,215.718802 210.059003,217.468944 C214.970466,220.574198 221.841676,218.286849 221.910934,218.263763 C222.154986,218.180213 222.425056,218.231516 222.621471,218.398615 C222.818618,218.565347 222.913161,218.823324 222.870653,219.077637 C222.861492,219.135169 221.962603,225.00745 226.196874,229.98817 C230.298127,234.811319 237.687124,237.256973 248.159389,237.256973 C259.913845,237.256973 268.404009,230.411414 273.394257,216.910115 C277.162777,206.715615 277.40573,196.363911 277.407562,196.260573 C277.41196,196.044737 277.511266,195.841727 277.679098,195.705775 C277.84693,195.569458 278.06643,195.514491 278.277503,195.5548 C291.340534,198.042962 303.400238,209.846521 304.085857,220.814586 C304.418223,226.130604 301.829289,232.271489 297.161146,237.241216 C290.544249,244.283922 276.561807,252.67991 247.524706,252.67991 C234.35394,252.67991 216.089955,249.886133 203.878542,236.577218 C196.545245,228.584686 194.917863,220.690362 194.852269,220.357996 L190.104974,192.034729 L144.83436,165.158554 L78.9120047,178.437788 C78.5378644,178.51181 78.1673885,178.288278 78.0625852,177.920734 L69.9806409,149.633013 L40.9614954,160.640654 C40.7507896,160.719806 40.5158983,160.698919 40.3235147,160.583122 L0.354626408,136.518679 C0.112406267,136.372834 -0.0242777154,136.100566 -1.99756313e-14,135.81877 C0.0310554786,135.53734 0.218675315,135.296952 0.48471438,135.20131 L81.6911236,105.973657 C81.8959663,105.900002 82.1238951,105.920889 82.3122478,106.032655 L96.2697712,114.279866 C96.5031966,114.417649 96.6409799,114.673061 96.6288873,114.943864 C96.6167946,115.214667 96.4562917,115.456521 96.2115064,115.572684 L57.5116171,133.971154 C57.4658115,133.991308 55.850522,134.693417 55.3136801,136.068685 C55.0351819,136.781054 55.0890493,137.548023 55.4778474,138.412467 C55.6126992,138.711486 55.8182748,138.900205 56.1253557,139.007207 C57.2540063,139.400036 59.2397717,138.582498 59.9099996,138.234741 L65.8947792,135.332863 L65.3740609,133.510532 C65.2758536,133.167174 65.4392881,132.803294 65.7610268,132.648654 L100.42086,115.99263 C100.308728,115.349152 100.079333,114.870941 99.7466013,114.594642 C99.3332513,114.251283 98.8653011,114.297455 98.8447801,114.299654 C98.4867634,114.33923 98.1452366,114.110202 98.0517932,113.761346 C97.9583497,113.41249 98.1269144,113.048244 98.4574478,112.902033 L124.149639,101.551765 C124.220729,101.520617 124.296217,101.500829 124.373537,101.493134 L132.196405,100.715904 C132.508249,100.686955 132.806536,100.856619 132.936257,101.142813 C133.065979,101.429006 132.998919,101.765769 132.769158,101.980506 L127.166947,107.217371 C127.11308,107.267941 127.05225,107.309715 126.98629,107.341596 L67.6423554,136.114491 L70.9517201,147.697084 L84.3841278,142.602399 L82.504265,136.09397 C82.4481989,135.899754 82.474583,135.69088 82.5782869,135.516819 C82.6812579,135.342391 82.8520213,135.218899 83.0495351,135.175292 C83.8410563,134.999765 89.8639462,133.663706 98.0576563,131.849804 C99.3479091,129.242181 102.850757,127.715938 103.208407,127.565695 L169.804288,95.2188629 C173.510146,93.5086641 177.301753,93.2627795 180.42423,93.5409113 C180.180544,91.5522143 180.451714,90.0633483 180.45831,90.0292689 L183.497971,69.9653062 L184.350322,68.4995262 Z" id="Fill-5" fill="#0A0B09" mask="url(#mask-2)"></path>
                </g>
            </g>
        </g>
    </g>
</svg>