<?xml version="1.0" encoding="UTF-8"?>
<svg width="86px" height="84px" viewBox="0 0 86 84" version="1.1" xmlns="http://www.w3.org/2000/svg" xmlns:xlink="http://www.w3.org/1999/xlink">
    <title>No Commitement</title>
    <g id="Employer-Page" stroke="none" stroke-width="1" fill="none" fill-rule="evenodd">
        <g id="Employers-Page" transform="translate(-578.000000, -1630.000000)">
            <g id="No-Commitement" transform="translate(580.000000, 1633.000000)">
                <g transform="translate(4.000000, 1.000000)" stroke="#D0DF3B" stroke-width="7">
                    <path d="M57.6366507,34.7043444 L57.6366507,74.6388889 C57.6366507,75.3875556 57.0234074,76 56.2731452,76 L1.36350544,76 C0.613382505,76 0,75.3875556 0,74.6388889 L0,19.8265046 C0,19.0776988 0.613382505,18.4653934 1.36350544,18.4653934 L40.6476959,18.4653934" id="Stroke-1" stroke-linecap="round"></path>
                    <path d="M44.9929226,39.9090515 C44.4625312,40.4382335 43.4202683,40.9525422 42.677247,41.0516509 L35.02396,42.0729013 C34.2809386,42.1721489 33.7538892,41.646303 33.8531722,40.9041694 L34.8760798,33.2639046 C34.9753628,32.52191 35.490437,31.4817553 36.0206892,30.9525733 L66.6300775,0.396935144 C67.1603296,-0.132107845 68.0283946,-0.132385849 68.5586468,0.396935144 L75.6023109,7.42864762 C76.132563,7.95810761 76.132563,8.82437033 75.6023109,9.35341332 L44.9929226,39.9090515 Z" id="Stroke-3"></path>
                    <path d="M70.0542279,14.892296 C69.5238365,15.421617 68.6559107,15.421617 68.1255193,14.892296 L61.0818552,7.86058356 C60.5517423,7.33112356 60.5517423,6.46527785 61.0818552,5.93581785 L66.6300078,0.396990745 C67.1603992,-0.132330248 68.028325,-0.132330248 68.5587164,0.396990745 L75.6023805,7.42870322 C76.1324934,7.95802421 76.1324934,8.82414793 75.6023805,9.35346892 L70.0542279,14.892296 Z" id="Stroke-5"></path>
                    <line x1="11.9848118" y1="51.4773423" x2="45.6528971" y2="51.4773423" id="Stroke-7" stroke-linecap="round"></line>
                    <line x1="11.9848118" y1="61.0800286" x2="37.9574183" y2="61.0800286" id="Stroke-9" stroke-linecap="round"></line>
                </g>
                <path d="M57.6366507,34.7043444 L57.6366507,74.6388889 C57.6366507,75.3875556 57.0234074,76 56.2731452,76 L1.36350544,76 C0.613382505,76 0,75.3875556 0,74.6388889 L0,19.8265046 C0,19.0776988 0.613382505,18.4653934 1.36350544,18.4653934 L40.6476959,18.4653934" id="Stroke-1" stroke="#231F20" stroke-width="3" stroke-linecap="round"></path>
                <path d="M44.9929226,39.9090515 C44.4625312,40.4382335 43.4202683,40.9525422 42.677247,41.0516509 L35.02396,42.0729013 C34.2809386,42.1721489 33.7538892,41.646303 33.8531722,40.9041694 L34.8760798,33.2639046 C34.9753628,32.52191 35.490437,31.4817553 36.0206892,30.9525733 L66.6300775,0.396935144 C67.1603296,-0.132107845 68.0283946,-0.132385849 68.5586468,0.396935144 L75.6023109,7.42864762 C76.132563,7.95810761 76.132563,8.82437033 75.6023109,9.35341332 L44.9929226,39.9090515 Z" id="Stroke-3" stroke="#231F20" stroke-width="3"></path>
                <path d="M70.0542279,14.892296 C69.5238365,15.421617 68.6559107,15.421617 68.1255193,14.892296 L61.0818552,7.86058356 C60.5517423,7.33112356 60.5517423,6.46527785 61.0818552,5.93581785 L66.6300078,0.396990745 C67.1603992,-0.132330248 68.028325,-0.132330248 68.5587164,0.396990745 L75.6023805,7.42870322 C76.1324934,7.95802421 76.1324934,8.82414793 75.6023805,9.35346892 L70.0542279,14.892296 Z" id="Stroke-5" stroke="#231F20" stroke-width="3"></path>
                <line x1="11.9848118" y1="51.4773423" x2="45.6528971" y2="51.4773423" id="Stroke-7" stroke="#231F20" stroke-width="3" stroke-linecap="round"></line>
                <line x1="11.9848118" y1="61.0800286" x2="37.9574183" y2="61.0800286" id="Stroke-9" stroke="#231F20" stroke-width="3" stroke-linecap="round"></line>
            </g>
        </g>
    </g>
</svg>