<?xml version="1.0" encoding="UTF-8"?>
<svg width="100px" height="66px" viewBox="0 0 100 66" version="1.1" xmlns="http://www.w3.org/2000/svg" xmlns:xlink="http://www.w3.org/1999/xlink">
    <title>Unique Audience</title>
    <g id="Employer-Page" stroke="none" stroke-width="1" fill="none" fill-rule="evenodd" stroke-linecap="round">
        <g id="Employers-Page" transform="translate(-178.000000, -1643.000000)">
            <g id="Verified-Jobs" transform="translate(170.000000, 1645.000000)">
                <g id="Unique-Audience" transform="translate(10.000000, 0.000000)">
                    <g transform="translate(2.311475, 1.538462)" stroke="#AEE2DF" stroke-width="7">
                        <path d="M28.6093564,36.4994825 C28.6093564,36.4994825 32.4901269,31.4463828 47.9407021,31.4463828 C65.468668,31.4463828 67.7251096,36.4994825 67.7251096,36.4994825" id="Stroke-1"></path>
                        <path d="M28.6093564,36.4994825 L28.6093564,57.7445833 C28.6093564,58.1389087 28.9311331,58.4615385 29.3244158,58.4615385 L67.0100502,58.4615385 C67.4033328,58.4615385 67.7251096,58.1389087 67.7251096,57.7445833 L67.7251096,36.4994825" id="Stroke-3"></path>
                        <path d="M58.6591713,11.1142383 C58.6591713,17.2525212 53.6966589,22.2289067 47.574177,22.2289067 C41.4529822,22.2289067 36.4896117,17.2525212 36.4896117,11.1142383 C36.4896117,4.97624209 41.4529822,0 47.574177,0 C53.6966589,0 58.6591713,4.97624209 58.6591713,11.1142383 Z" id="Stroke-5"></path>
                        <path d="M65.6891066,24.7518574 C68.4220637,24.0693161 71.998934,23.5168305 76.4170002,23.5168305 C89.5248978,23.5168305 91.6885246,27.2954708 91.6885246,27.2954708" id="Stroke-7"></path>
                        <path d="M91.688496,27.2954278 L91.688496,48.6599733 C91.688496,49.0542987 91.3667192,49.3769285 90.9734366,49.3769285 L74.1844131,49.3769285" id="Stroke-9"></path>
                        <path d="M84.432459,8.31173239 C84.432459,12.9018224 80.7215865,16.6235365 76.142775,16.6235365 C71.5652505,16.6235365 67.85352,12.9018224 67.85352,8.31173239 C67.85352,3.72149894 71.5652505,7.16955118e-05 76.142775,7.16955118e-05 C80.7215865,7.16955118e-05 84.432459,3.72149894 84.432459,8.31173239 Z" id="Stroke-11"></path>
                        <path d="M0,27.2954278 C0,27.2954278 4.34813341,23.5167875 15.9024928,23.5167875 C21.871952,23.5167875 26.0744993,24.300276 28.8811075,25.154313" id="Stroke-13"></path>
                        <path d="M0,27.2954278 L0,48.6599733 C0,49.0542987 0.321776746,49.3769285 0.715059434,49.3769285 L18.9276232,49.3769285" id="Stroke-15"></path>
                        <path d="M23.9179658,8.31173239 C23.9179658,12.9018224 20.2072364,16.6235365 15.6284248,16.6235365 C11.0509003,16.6235365 7.33916982,12.9018224 7.33916982,8.31173239 C7.33916982,3.72149894 11.0509003,7.16955118e-05 15.6284248,7.16955118e-05 C20.2072364,7.16955118e-05 23.9179658,3.72149894 23.9179658,8.31173239 Z" id="Stroke-17"></path>
                    </g>
                    <path d="M28.6093564,36.4994825 C28.6093564,36.4994825 32.4901269,31.4463828 47.9407021,31.4463828 C65.468668,31.4463828 67.7251096,36.4994825 67.7251096,36.4994825" id="Stroke-1" stroke="#212121" stroke-width="3"></path>
                    <path d="M28.6093564,36.4994825 L28.6093564,57.7445833 C28.6093564,58.1389087 28.9311331,58.4615385 29.3244158,58.4615385 L67.0100502,58.4615385 C67.4033328,58.4615385 67.7251096,58.1389087 67.7251096,57.7445833 L67.7251096,36.4994825" id="Stroke-3" stroke="#212121" stroke-width="3"></path>
                    <path d="M58.6591713,11.1142383 C58.6591713,17.2525212 53.6966589,22.2289067 47.574177,22.2289067 C41.4529822,22.2289067 36.4896117,17.2525212 36.4896117,11.1142383 C36.4896117,4.97624209 41.4529822,0 47.574177,0 C53.6966589,0 58.6591713,4.97624209 58.6591713,11.1142383 Z" id="Stroke-5" stroke="#212121" stroke-width="3"></path>
                    <path d="M65.6891066,24.7518574 C68.4220637,24.0693161 71.998934,23.5168305 76.4170002,23.5168305 C89.5248978,23.5168305 91.6885246,27.2954708 91.6885246,27.2954708" id="Stroke-7" stroke="#212121" stroke-width="3"></path>
                    <path d="M91.688496,27.2954278 L91.688496,48.6599733 C91.688496,49.0542987 91.3667192,49.3769285 90.9734366,49.3769285 L74.1844131,49.3769285" id="Stroke-9" stroke="#212121" stroke-width="3"></path>
                    <path d="M84.432459,8.31173239 C84.432459,12.9018224 80.7215865,16.6235365 76.142775,16.6235365 C71.5652505,16.6235365 67.85352,12.9018224 67.85352,8.31173239 C67.85352,3.72149894 71.5652505,7.16955118e-05 76.142775,7.16955118e-05 C80.7215865,7.16955118e-05 84.432459,3.72149894 84.432459,8.31173239 Z" id="Stroke-11" stroke="#212121" stroke-width="3"></path>
                    <path d="M0,27.2954278 C0,27.2954278 4.34813341,23.5167875 15.9024928,23.5167875 C21.871952,23.5167875 26.0744993,24.300276 28.8811075,25.154313" id="Stroke-13" stroke="#212121" stroke-width="3"></path>
                    <path d="M0,27.2954278 L0,48.6599733 C0,49.0542987 0.321776746,49.3769285 0.715059434,49.3769285 L18.9276232,49.3769285" id="Stroke-15" stroke="#212121" stroke-width="3"></path>
                    <path d="M23.9179658,8.31173239 C23.9179658,12.9018224 20.2072364,16.6235365 15.6284248,16.6235365 C11.0509003,16.6235365 7.33916982,12.9018224 7.33916982,8.31173239 C7.33916982,3.72149894 11.0509003,7.16955118e-05 15.6284248,7.16955118e-05 C20.2072364,7.16955118e-05 23.9179658,3.72149894 23.9179658,8.31173239 Z" id="Stroke-17" stroke="#212121" stroke-width="3"></path>
                </g>
            </g>
        </g>
    </g>
</svg>